<svg width="27" height="27" viewBox="0 0 27 27" fill="none" xmlns="http://www.w3.org/2000/svg">
<path d="M6.49969 15.1552L11.4975 20.305L9.49921 22.3643L11.5003 24.4251L9.50063 26.4844L6.00047 22.8799L1.99969 27L0 24.9407L4.00079 20.8191L0.500629 17.216L2.50031 15.1566L4.5 17.2145L6.49827 15.1552H6.49969ZM0.772156 0L5.78693 0.0043692L22.4986 17.216L24.4997 15.1566L26.4994 17.216L23.0006 20.8205L27 24.9407L25.0003 27L20.9995 22.8799L17.4994 26.4844L15.4997 24.4251L17.4994 22.3643L0.776399 5.14251L0.772156 0ZM21.2173 0L26.2278 0.0043692L26.2307 5.13523L20.4989 11.0365L15.4983 5.88818L21.2173 0Z" fill="#FFC977"/>
</svg>
