<svg width="374" height="694" viewBox="0 0 374 694" fill="none" xmlns="http://www.w3.org/2000/svg">
<path d="M173.664 384.331C178.112 388.556 182.64 392.696 187.041 396.96C191.442 392.696 195.97 388.725 200.418 384.5C197.603 389.807 194.428 394.927 191.426 400.131C193.862 404.406 195.516 409.05 197.309 413.602C203.181 429.153 208.542 444.889 213.983 460.586C218.577 474.095 224.977 487.016 228.27 500.934C229.619 505.801 229.501 510.863 229.947 515.85C231.68 530.166 234.849 544.273 238.309 558.269C240.05 564.66 241.512 571.203 244.487 577.178C246.734 582.309 248.192 587.723 249.63 593.111C251.501 600.552 253.127 608.079 253.803 615.72C254.136 619.182 253.785 622.679 254.285 626.134C255.072 631.773 256.922 637.231 259.376 642.38C259.986 643.689 260.788 644.99 260.801 646.49C261.442 658.403 262.136 670.31 262.67 682.231C262.813 683.111 262.552 684.253 263.346 684.915C267.87 689.443 274.221 692.333 280.752 692.065C288.465 691.734 295.66 688.112 301.495 683.327C298.401 677.645 295.149 672.049 291.975 666.407C290.87 664.351 289.414 662.407 288.946 660.08C287.343 653.245 285.686 646.416 284.057 639.594C283.22 636.519 284.037 633.293 283.46 630.211C281.952 627.242 280.066 624.282 279.886 620.878C279.236 609.995 277.875 599.004 279.584 588.151C280.041 584.438 282.387 581.272 282.763 577.553C283.808 569.272 283.328 560.894 282.853 552.592L282.853 552.591L282.839 552.337C281.946 540.49 280.74 528.606 278.061 517C277.245 512.543 274.187 509 272.535 504.865C268.946 496.557 265.906 487.803 265.437 478.72C265.053 474.378 267.349 470.422 267.431 466.124C268.352 452.56 267.359 438.952 266.525 425.409C266.161 420.819 265.962 416.209 265.345 411.652C261.743 395.465 258.042 379.298 254.406 363.125C252.71 354.731 250.098 346.497 249.378 337.943C247.947 325.967 246.581 313.991 245.15 302.016C244.664 298.757 245.315 295.48 245.501 292.218C247.042 272.632 248.708 253.045 249.883 233.428C245.803 233.36 241.409 232.914 238.076 230.371C241.913 231.203 246.023 231.911 249.811 230.461C258.094 223.162 261.889 212.143 262.416 201.438C264.968 201.637 267.174 203.023 269.431 204.077C271.374 204.8 271.841 206.97 272.858 208.531C278.621 218.748 284.452 229.017 291.813 238.229C295.581 243.262 299.078 248.525 301.833 254.168C303.253 252.069 304.413 249.827 305.766 247.696C305.466 252.243 305.465 256.808 305.318 261.368C304.963 265.55 307.397 269.219 309.034 272.904C318.915 292.196 330.831 310.398 342.291 328.803C335.352 334.936 328.413 341.082 321.568 347.332C322.27 351.614 322.74 355.936 323.436 360.225C325.823 362.355 329.268 363.032 331.702 365.096C332.01 368.826 331.728 372.858 333.735 376.215C334.82 378.142 337.063 379.183 339.262 379.102C346.765 379.117 354.26 379.003 361.756 379.051C364.785 373.945 367.547 368.696 370.516 363.558C371.103 362.401 372.128 361.184 371.57 359.823C368.711 349.575 365.579 339.393 362.838 329.112C362.293 327.353 362.126 325.514 361.879 323.702C359.347 304.498 356.955 285.28 354.889 266.028C353.249 250.387 346.29 235.414 335.682 223.665C334.114 221.936 332.187 220.457 331.162 218.322L330.855 217.749C325.86 208.417 320.854 199.065 316.848 189.27C312.337 179.805 309.476 169.414 309.871 158.905C308.025 152.651 304.811 146.761 300.921 141.5C295.636 134.412 287.859 128.978 279.007 127.239C273.068 126.044 266.856 126.225 260.968 127.599C258.684 128.228 256.427 127.193 254.252 126.609C242.714 122.846 231.604 117.953 220.427 113.27C218.907 116.896 210.926 120.501 209.273 124.069C209.173 117.795 205.439 104.689 205.792 98.4653C212.337 91.1841 217.542 82.4799 219.353 72.8293C224.41 70.6912 228.18 65.4091 227.359 59.8755C227.137 56.5925 224.706 54.0309 221.845 52.5947C222.33 46.4323 222.835 40.2699 222.97 34.0876C222.983 29.9309 222.209 25.324 219.017 22.3256C216.371 19.7773 212.5 19.4795 209.275 18.0101C200.919 14.4956 192.873 10.2065 185.466 5.0173C182.726 3.00515 179.925 -0.138867 176.101 0.933499C171.266 2.48246 168.849 7.59245 167.751 12.1199C161.604 14.1852 155.369 16.5748 150.413 20.8177C147.7 23.1411 146.865 26.8015 146.488 30.164C145.821 37.723 147.167 45.2489 148.083 52.7351C145.847 54.8995 143.518 57.4082 143.329 60.6582C142.999 64.9739 145.941 68.6474 149.052 71.3413C149.14 74.3861 149.752 77.3779 150.708 80.2704C153.199 88.2067 156.687 96.2488 163.171 101.842C163.524 108.065 158.071 117.796 157.972 124.07C156.319 120.502 155.185 116.728 153.665 113.102C142.489 117.786 131.378 122.679 119.839 126.442C117.664 127.027 115.407 128.062 113.124 127.433C107.235 126.059 101.023 125.878 95.0841 127.074C86.2323 128.813 78.4548 134.248 73.169 141.336C69.2796 146.597 66.0654 152.487 64.2186 158.741C64.6132 169.25 61.7523 179.641 57.2407 189.107C53.2341 198.902 48.2275 208.254 43.2322 217.586L42.9256 218.159C41.9 220.294 39.9734 221.773 38.4046 223.502C27.7966 235.252 20.8365 250.225 19.1963 265.866C17.129 285.118 14.7363 304.335 12.2041 323.54C11.9573 325.352 11.7901 327.191 11.2446 328.949C8.50374 339.231 5.37127 349.412 2.51098 359.661C1.95376 361.021 2.97868 362.239 3.56526 363.395C6.53406 368.534 9.29642 373.782 12.3252 378.888C19.821 378.84 27.3161 378.954 34.8184 378.939C37.0175 379.019 39.2613 377.978 40.3458 376.052C42.3534 372.694 42.0712 368.662 42.3791 364.933C44.8132 362.868 48.2581 362.191 50.6459 360.061C51.3417 355.772 51.8116 351.45 52.5139 347.167C45.669 340.918 38.7307 334.772 31.7923 328.64C43.2521 310.234 55.1696 292.033 65.0515 272.74C66.6883 269.055 69.1225 265.386 68.7678 261.204C68.6207 256.644 68.6198 252.079 68.3199 247.532C69.6732 249.663 70.8334 251.905 72.2533 254.004C75.008 248.361 78.5053 243.098 82.2741 238.065C89.6354 228.852 95.4661 218.583 101.23 208.366C102.247 206.805 102.714 204.635 104.658 203.912C106.915 202.858 109.12 201.471 111.673 201.273C112.199 211.978 115.994 222.996 124.277 230.295C128.065 231.745 132.174 231.037 136.012 230.204C132.679 232.748 128.285 233.193 124.204 233.262C125.378 252.879 127.044 272.465 128.584 292.051C128.77 295.313 129.42 298.59 128.935 301.849C127.503 313.824 126.137 325.8 124.705 337.776C123.985 346.33 121.372 354.564 119.676 362.958C116.04 379.132 112.338 395.299 108.735 411.486C108.118 416.042 107.919 420.653 107.554 425.243C106.72 438.786 105.726 452.394 106.647 465.958C106.728 470.256 109.024 474.211 108.641 478.554C108.171 487.637 105.131 496.391 101.541 504.699C99.889 508.834 96.8308 512.377 96.0148 516.835C93.3349 528.44 92.1291 540.324 91.2357 552.171L91.2212 552.425C90.7455 560.727 90.2656 569.105 91.3098 577.386C91.6863 581.105 94.0321 584.272 94.4884 587.985C96.1973 598.838 94.8357 609.829 94.1856 620.712C94.0053 624.116 92.119 627.076 90.6115 630.044C90.0338 633.127 90.8509 636.352 90.0141 639.427C88.3842 646.25 86.7276 653.078 85.1242 659.914C84.656 662.24 83.1992 664.185 82.0942 666.241C78.9209 671.883 75.668 677.48 72.5743 683.161C78.4086 687.946 85.6033 691.568 93.3168 691.899C99.8478 692.166 106.199 689.276 110.723 684.748C111.517 684.086 111.256 682.944 111.399 682.064C111.934 670.143 112.628 658.236 113.27 646.323C113.282 644.823 114.085 643.521 114.695 642.213C117.149 637.063 118.999 631.605 119.787 625.967C120.286 622.512 119.936 619.014 120.269 615.552C120.945 607.911 122.572 600.384 124.443 592.943C125.881 587.555 127.339 582.141 129.587 577.01C132.562 571.035 134.025 564.492 135.766 558.101C139.227 544.105 142.395 529.999 144.13 515.683C144.576 510.695 144.457 505.633 145.807 500.767C149.101 486.848 155.501 473.927 160.096 460.418C165.537 444.721 170.899 428.985 176.772 413.433C178.565 408.881 180.219 404.237 182.656 399.962C179.654 394.758 176.479 389.639 173.664 384.331Z" fill="#08090E" stroke="#EAC48B" stroke-opacity="0.15"/>
</svg>
