<svg width="429" height="267" viewBox="0 0 429 267" fill="none" xmlns="http://www.w3.org/2000/svg">
<g filter="url(#filter0_d)">
<rect x="4" width="421" height="259" rx="9" fill="#1C1E22"/>
</g>
<path fill-rule="evenodd" clip-rule="evenodd" d="M218.912 214H425V213H218.912L214.247 209L209.583 213H4V214H209.583L214.247 218L218.912 214Z" fill="#C09645"/>
<path d="M4 8C4 3.58172 7.58172 0 12 0H417C421.418 0 425 3.58172 425 8V76H4V8Z" fill="url(#paint0_linear)"/>
<path fill-rule="evenodd" clip-rule="evenodd" d="M218.912 76H425V75H218.912L214.247 71L209.583 75H4V76H209.583L214.247 80L218.912 76Z" fill="#C09645"/>
<path d="M329.462 161.16H328.326C327.729 161.16 327.27 161.309 326.95 161.608C326.641 161.907 326.486 162.397 326.486 163.08H326.006V161.72C326.006 160.867 326.459 160.44 327.366 160.44H334.886V161.16H331.542V171H329.462V161.16ZM335.374 165.56C335.374 165.016 335.299 164.616 335.15 164.36C335.011 164.093 334.718 163.96 334.27 163.96H334.11V163.48H335.694C336.067 163.48 336.355 163.533 336.558 163.64C336.76 163.736 336.92 163.907 337.038 164.152C337.667 163.597 338.392 163.32 339.214 163.32C340.291 163.32 341.118 163.688 341.694 164.424C342.28 165.149 342.574 166.088 342.574 167.24C342.574 168.392 342.275 169.336 341.678 170.072C341.091 170.797 340.243 171.16 339.134 171.16C338.803 171.16 338.483 171.112 338.174 171.016C337.864 170.92 337.624 170.808 337.454 170.68V174.04H335.374V165.56ZM338.814 170.44C339.88 170.44 340.414 169.373 340.414 167.24C340.414 166.259 340.291 165.48 340.046 164.904C339.8 164.328 339.416 164.04 338.894 164.04C338.339 164.04 337.859 164.221 337.454 164.584V169.96C337.592 170.088 337.79 170.2 338.046 170.296C338.302 170.392 338.558 170.44 338.814 170.44ZM347.444 171.16C346.708 171.16 346.063 170.989 345.508 170.648C344.953 170.307 344.521 169.843 344.212 169.256C343.913 168.659 343.764 167.987 343.764 167.24C343.764 166.408 343.913 165.699 344.212 165.112C344.521 164.525 344.943 164.083 345.476 163.784C346.009 163.475 346.612 163.32 347.284 163.32C347.945 163.32 348.543 163.453 349.076 163.72C349.609 163.987 350.031 164.365 350.34 164.856C350.649 165.336 350.804 165.891 350.804 166.52L350.74 167.528H345.924C345.924 168.541 346.079 169.283 346.388 169.752C346.697 170.211 347.129 170.44 347.684 170.44C348.196 170.44 348.623 170.328 348.964 170.104C349.316 169.869 349.652 169.539 349.972 169.112L350.468 169.48C350.159 169.96 349.769 170.36 349.3 170.68C348.841 171 348.223 171.16 347.444 171.16ZM348.644 166.808C348.644 165.805 348.527 165.096 348.292 164.68C348.057 164.253 347.721 164.04 347.284 164.04C346.879 164.04 346.548 164.259 346.292 164.696C346.047 165.123 345.924 165.827 345.924 166.808H348.644ZM355.713 171.16C354.582 171.16 353.686 170.813 353.025 170.12C352.363 169.416 352.033 168.429 352.033 167.16V166.68C352.033 165.379 352.145 164.349 352.368 163.592C352.603 162.824 352.918 162.269 353.312 161.928C353.718 161.576 354.23 161.331 354.849 161.192L357.073 160.68C357.563 160.563 357.926 160.451 358.161 160.344C358.406 160.227 358.55 160.072 358.593 159.88H359.073V161.16C359.073 161.715 358.753 162.061 358.113 162.2L355.489 162.792C354.795 162.963 354.23 163.315 353.793 163.848C353.355 164.371 353.115 165.101 353.073 166.04H353.153C353.419 165.368 353.782 164.856 354.241 164.504C354.699 164.141 355.297 163.96 356.033 163.96C357.046 163.96 357.857 164.264 358.465 164.872C359.083 165.469 359.392 166.365 359.392 167.56C359.392 168.765 359.067 169.667 358.417 170.264C357.777 170.861 356.875 171.16 355.713 171.16ZM355.713 170.44C356.118 170.44 356.47 170.221 356.769 169.784C357.078 169.347 357.233 168.605 357.233 167.56C357.233 166.867 357.153 166.307 356.993 165.88C356.843 165.443 356.651 165.133 356.417 164.952C356.193 164.771 355.958 164.68 355.713 164.68C355.467 164.68 355.227 164.771 354.993 164.952C354.769 165.133 354.577 165.443 354.417 165.88C354.267 166.307 354.193 166.867 354.193 167.56C354.193 168.605 354.342 169.347 354.641 169.784C354.95 170.221 355.307 170.44 355.713 170.44ZM364.447 171.16C363.669 171.16 362.986 170.989 362.399 170.648C361.823 170.296 361.381 169.827 361.071 169.24C360.762 168.643 360.607 167.976 360.607 167.24C360.607 166.504 360.762 165.843 361.071 165.256C361.381 164.659 361.823 164.189 362.399 163.848C362.986 163.496 363.669 163.32 364.447 163.32C365.226 163.32 365.903 163.496 366.479 163.848C367.066 164.189 367.514 164.659 367.823 165.256C368.133 165.843 368.287 166.504 368.287 167.24C368.287 167.976 368.133 168.643 367.823 169.24C367.514 169.827 367.066 170.296 366.479 170.648C365.903 170.989 365.226 171.16 364.447 171.16ZM364.447 170.44C364.991 170.44 365.407 170.147 365.695 169.56C365.983 168.973 366.127 168.2 366.127 167.24C366.127 166.28 365.983 165.507 365.695 164.92C365.407 164.333 364.991 164.04 364.447 164.04C363.903 164.04 363.487 164.333 363.199 164.92C362.911 165.507 362.767 166.28 362.767 167.24C362.767 168.2 362.911 168.973 363.199 169.56C363.487 170.147 363.903 170.44 364.447 170.44ZM370.043 165.56C370.043 165.016 369.969 164.616 369.819 164.36C369.67 164.093 369.371 163.96 368.923 163.96H368.843V163.48H373.131C374.123 163.48 374.907 163.645 375.483 163.976C376.07 164.307 376.363 164.781 376.363 165.4C376.363 165.869 376.187 166.248 375.835 166.536C375.483 166.813 374.982 166.995 374.331 167.08C375.046 167.176 375.617 167.384 376.043 167.704C376.47 168.013 376.683 168.419 376.683 168.92C376.683 170.307 375.499 171 373.131 171H370.043V165.56ZM372.683 166.68C373.11 166.68 373.467 166.568 373.755 166.344C374.054 166.109 374.203 165.795 374.203 165.4C374.203 164.984 374.065 164.669 373.787 164.456C373.521 164.232 373.206 164.12 372.843 164.12C372.587 164.12 372.347 164.157 372.123 164.232V166.68H372.683ZM372.843 170.36C373.345 170.36 373.75 170.237 374.059 169.992C374.369 169.736 374.523 169.379 374.523 168.92C374.523 168.419 374.358 168.04 374.027 167.784C373.707 167.528 373.259 167.4 372.683 167.4H372.123V170.248C372.347 170.323 372.587 170.36 372.843 170.36ZM380.434 171.16C379.57 171.16 378.898 170.968 378.418 170.584C377.949 170.189 377.714 169.661 377.714 169C377.714 168.467 377.837 168.024 378.082 167.672C378.338 167.32 378.781 167.053 379.41 166.872C380.039 166.691 380.914 166.6 382.034 166.6H382.274C382.274 165.672 382.146 165.016 381.89 164.632C381.634 164.237 381.255 164.04 380.754 164.04C380.338 164.04 379.997 164.141 379.73 164.344C379.463 164.547 379.271 164.925 379.154 165.48H378.274C378.274 165.117 378.295 164.808 378.338 164.552C378.391 164.296 378.503 164.072 378.674 163.88C379.005 163.507 379.805 163.32 381.074 163.32C382.141 163.32 382.951 163.603 383.506 164.168C384.071 164.723 384.354 165.56 384.354 166.68V171H382.994L382.434 170.28H382.354C382.194 170.525 381.943 170.733 381.602 170.904C381.271 171.075 380.882 171.16 380.434 171.16ZM380.914 170.36C381.234 170.36 381.511 170.253 381.746 170.04C381.991 169.827 382.167 169.587 382.274 169.32V167.32H382.034C381.277 167.32 380.727 167.459 380.386 167.736C380.045 168.003 379.874 168.424 379.874 169C379.874 169.437 379.965 169.773 380.146 170.008C380.327 170.243 380.583 170.36 380.914 170.36ZM386.452 165.56C386.452 165.016 386.377 164.616 386.228 164.36C386.078 164.093 385.78 163.96 385.332 163.96H385.171V163.48H387.092C387.476 163.48 387.769 163.544 387.972 163.672C388.174 163.8 388.318 164.013 388.404 164.312C388.489 164.6 388.532 165.016 388.532 165.56V166.84H391.092V163.48H393.172V168.92C393.172 169.464 393.246 169.869 393.396 170.136C393.545 170.392 393.844 170.52 394.292 170.52H394.452V171H392.532C392.148 171 391.854 170.941 391.652 170.824C391.449 170.696 391.305 170.488 391.22 170.2C391.134 169.901 391.092 169.475 391.092 168.92V167.56H388.532V171H386.452V165.56ZM395.702 165.56C395.702 165.016 395.627 164.616 395.478 164.36C395.328 164.093 395.03 163.96 394.582 163.96H394.421V163.48H396.342C396.726 163.48 397.019 163.544 397.222 163.672C397.424 163.8 397.568 164.013 397.654 164.312C397.739 164.6 397.782 165.016 397.782 165.56V169L400.662 163.48H402.582V171H400.502V165.48L397.622 171H395.702V165.56ZM404.827 171.24C404.454 171.24 404.107 171.187 403.787 171.08V170.664C404.278 170.6 404.731 170.205 405.147 169.48L406.107 167.816C405.542 167.731 405.094 167.507 404.763 167.144C404.432 166.771 404.267 166.323 404.267 165.8C404.267 165 404.576 164.413 405.195 164.04C405.824 163.667 406.688 163.48 407.787 163.48H411.947V163.96H411.867C411.419 163.96 411.12 164.093 410.971 164.36C410.822 164.616 410.747 165.016 410.747 165.56V171H408.667V167.896H407.963L407.003 169.8C406.758 170.301 406.47 170.669 406.139 170.904C405.819 171.128 405.382 171.24 404.827 171.24ZM407.947 167.24C408.139 167.24 408.304 167.224 408.443 167.192C408.582 167.149 408.656 167.128 408.667 167.128V164.232C408.656 164.232 408.582 164.216 408.443 164.184C408.304 164.141 408.139 164.12 407.947 164.12C407.499 164.12 407.131 164.243 406.843 164.488C406.566 164.723 406.427 165.107 406.427 165.64C406.427 166.173 406.571 166.573 406.859 166.84C407.147 167.107 407.51 167.24 407.947 167.24Z" fill="#FFD37E"/>
<path d="M252.856 196.32C251.758 196.32 250.808 196.085 250.008 195.616C249.219 195.136 248.616 194.485 248.2 193.664C247.784 192.843 247.576 191.915 247.576 190.88C247.576 189.813 247.806 188.843 248.264 187.968C248.723 187.083 249.352 186.389 250.152 185.888C250.963 185.376 251.864 185.12 252.856 185.12C253.795 185.12 254.579 185.243 255.208 185.488C255.838 185.723 256.318 186.032 256.648 186.416C256.84 186.661 256.958 186.965 257 187.328C257.043 187.691 257.064 188.197 257.064 188.848H256.584C256.382 187.867 256.008 187.12 255.464 186.608C254.92 186.096 254.211 185.84 253.336 185.84C252.248 185.84 251.39 186.224 250.76 186.992C250.131 187.76 249.816 189.056 249.816 190.88C249.816 192.235 250.104 193.36 250.68 194.256C251.256 195.152 252.142 195.6 253.336 195.6C254.083 195.6 254.766 195.403 255.384 195.008C256.014 194.613 256.52 194.048 256.904 193.312L257.464 193.744C256.952 194.64 256.334 195.296 255.608 195.712C254.883 196.117 253.966 196.32 252.856 196.32ZM259.108 190.56C259.108 190.016 259.033 189.616 258.884 189.36C258.734 189.093 258.436 188.96 257.988 188.96H257.828V188.48H259.748C260.132 188.48 260.425 188.544 260.628 188.672C260.83 188.8 260.974 189.013 261.06 189.312C261.145 189.6 261.188 190.016 261.188 190.56V194L264.068 188.48H265.988V196H263.908V190.48L261.028 196H259.108V190.56ZM268.009 196.24C267.849 196.24 267.673 196.224 267.481 196.192C267.289 196.16 267.145 196.128 267.049 196.096V195.632C267.465 195.568 267.817 195.387 268.105 195.088C268.393 194.779 268.622 194.251 268.793 193.504C268.974 192.747 269.065 191.712 269.065 190.4C269.065 189.931 268.98 189.573 268.809 189.328C268.649 189.083 268.334 188.96 267.865 188.96V188.48H275.065V196H272.985V189.2H270.729V190.4C270.729 194.293 269.822 196.24 268.009 196.24ZM279.215 196.16C278.351 196.16 277.679 195.968 277.199 195.584C276.73 195.189 276.495 194.661 276.495 194C276.495 193.467 276.618 193.024 276.863 192.672C277.119 192.32 277.562 192.053 278.191 191.872C278.821 191.691 279.695 191.6 280.815 191.6H281.055C281.055 190.672 280.927 190.016 280.671 189.632C280.415 189.237 280.037 189.04 279.535 189.04C279.119 189.04 278.778 189.141 278.511 189.344C278.245 189.547 278.053 189.925 277.935 190.48H277.055C277.055 190.117 277.077 189.808 277.119 189.552C277.173 189.296 277.285 189.072 277.455 188.88C277.786 188.507 278.586 188.32 279.855 188.32C280.922 188.32 281.733 188.603 282.287 189.168C282.853 189.723 283.135 190.56 283.135 191.68V196H281.775L281.215 195.28H281.135C280.975 195.525 280.725 195.733 280.383 195.904C280.053 196.075 279.663 196.16 279.215 196.16ZM279.695 195.36C280.015 195.36 280.293 195.253 280.527 195.04C280.773 194.827 280.949 194.587 281.055 194.32V192.32H280.815C280.058 192.32 279.509 192.459 279.167 192.736C278.826 193.003 278.655 193.424 278.655 194C278.655 194.437 278.746 194.773 278.927 195.008C279.109 195.243 279.365 195.36 279.695 195.36ZM289.873 187.328L288.481 188.224L288.097 187.728L290.561 185.44H291.953V196H289.873V187.328ZM297.989 196.32C295.215 196.32 293.829 194.453 293.829 190.72C293.829 186.987 295.215 185.12 297.989 185.12C300.762 185.12 302.149 186.987 302.149 190.72C302.149 194.453 300.762 196.32 297.989 196.32ZM297.989 195.6C298.661 195.6 299.146 195.211 299.445 194.432C299.754 193.653 299.909 192.416 299.909 190.72C299.909 189.024 299.754 187.787 299.445 187.008C299.146 186.229 298.661 185.84 297.989 185.84C297.317 185.84 296.826 186.229 296.517 187.008C296.218 187.787 296.069 189.024 296.069 190.72C296.069 192.416 296.218 193.653 296.517 194.432C296.826 195.211 297.317 195.6 297.989 195.6ZM331.863 196.24C331.511 196.24 331.191 196.192 330.903 196.096V195.6C331.426 195.493 331.869 195.211 332.231 194.752C332.594 194.293 332.882 193.493 333.095 192.352C333.319 191.2 333.431 189.589 333.431 187.52C333.431 186.976 333.357 186.576 333.207 186.32C333.058 186.053 332.759 185.92 332.311 185.92H332.151V185.44H340.711V196H338.631V186.16H335.175V187.52C335.175 190.72 334.882 192.976 334.295 194.288C333.719 195.589 332.909 196.24 331.863 196.24ZM346.229 196.16C345.45 196.16 344.767 195.989 344.181 195.648C343.605 195.296 343.162 194.827 342.853 194.24C342.543 193.643 342.389 192.976 342.389 192.24C342.389 191.504 342.543 190.843 342.853 190.256C343.162 189.659 343.605 189.189 344.181 188.848C344.767 188.496 345.45 188.32 346.229 188.32C347.007 188.32 347.685 188.496 348.261 188.848C348.847 189.189 349.295 189.659 349.605 190.256C349.914 190.843 350.069 191.504 350.069 192.24C350.069 192.976 349.914 193.643 349.605 194.24C349.295 194.827 348.847 195.296 348.261 195.648C347.685 195.989 347.007 196.16 346.229 196.16ZM346.229 195.44C346.773 195.44 347.189 195.147 347.477 194.56C347.765 193.973 347.909 193.2 347.909 192.24C347.909 191.28 347.765 190.507 347.477 189.92C347.189 189.333 346.773 189.04 346.229 189.04C345.685 189.04 345.269 189.333 344.981 189.92C344.693 190.507 344.549 191.28 344.549 192.24C344.549 193.2 344.693 193.973 344.981 194.56C345.269 195.147 345.685 195.44 346.229 195.44ZM351.825 190.56C351.825 190.016 351.75 189.616 351.601 189.36C351.451 189.093 351.153 188.96 350.705 188.96H350.625V188.48H354.913C355.905 188.48 356.689 188.645 357.265 188.976C357.851 189.307 358.145 189.781 358.145 190.4C358.145 190.869 357.969 191.248 357.617 191.536C357.265 191.813 356.763 191.995 356.113 192.08C356.827 192.176 357.398 192.384 357.825 192.704C358.251 193.013 358.465 193.419 358.465 193.92C358.465 195.307 357.281 196 354.913 196H351.825V190.56ZM354.465 191.68C354.891 191.68 355.249 191.568 355.537 191.344C355.835 191.109 355.985 190.795 355.985 190.4C355.985 189.984 355.846 189.669 355.569 189.456C355.302 189.232 354.987 189.12 354.625 189.12C354.369 189.12 354.129 189.157 353.905 189.232V191.68H354.465ZM354.625 195.36C355.126 195.36 355.531 195.237 355.841 194.992C356.15 194.736 356.305 194.379 356.305 193.92C356.305 193.419 356.139 193.04 355.809 192.784C355.489 192.528 355.041 192.4 354.465 192.4H353.905V195.248C354.129 195.323 354.369 195.36 354.625 195.36ZM366.295 196.16C365.826 196.16 365.394 196.064 364.999 195.872C364.615 195.669 364.253 195.339 363.911 194.88L362.375 192.864V196H360.295V190.56C360.295 190.016 360.221 189.616 360.071 189.36C359.922 189.093 359.623 188.96 359.175 188.96H359.015V188.48H360.935C361.319 188.48 361.613 188.544 361.815 188.672C362.018 188.8 362.162 189.013 362.247 189.312C362.333 189.6 362.375 190.016 362.375 190.56V192.08L364.311 189.712C364.674 189.275 365.015 188.96 365.335 188.768C365.655 188.576 366.082 188.48 366.615 188.48H366.935V188.896C366.615 188.896 366.327 188.96 366.071 189.088C365.815 189.216 365.57 189.419 365.335 189.696L363.783 191.584L365.911 194.4C366.423 195.093 366.919 195.499 367.399 195.616V196C367.314 196.043 367.159 196.08 366.935 196.112C366.711 196.144 366.498 196.16 366.295 196.16ZM371.307 196.16C370.528 196.16 369.845 195.989 369.259 195.648C368.683 195.296 368.24 194.827 367.931 194.24C367.621 193.643 367.467 192.976 367.467 192.24C367.467 191.504 367.621 190.843 367.931 190.256C368.24 189.659 368.683 189.189 369.259 188.848C369.845 188.496 370.528 188.32 371.307 188.32C372.085 188.32 372.763 188.496 373.339 188.848C373.925 189.189 374.373 189.659 374.683 190.256C374.992 190.843 375.147 191.504 375.147 192.24C375.147 192.976 374.992 193.643 374.683 194.24C374.373 194.827 373.925 195.296 373.339 195.648C372.763 195.989 372.085 196.16 371.307 196.16ZM371.307 195.44C371.851 195.44 372.267 195.147 372.555 194.56C372.843 193.973 372.987 193.2 372.987 192.24C372.987 191.28 372.843 190.507 372.555 189.92C372.267 189.333 371.851 189.04 371.307 189.04C370.763 189.04 370.347 189.333 370.059 189.92C369.771 190.507 369.627 191.28 369.627 192.24C369.627 193.2 369.771 193.973 370.059 194.56C370.347 195.147 370.763 195.44 371.307 195.44ZM380.135 196.16C379.313 196.16 378.615 195.984 378.039 195.632C377.463 195.28 377.025 194.811 376.727 194.224C376.439 193.627 376.295 192.965 376.295 192.24C376.295 191.515 376.439 190.859 376.727 190.272C377.025 189.675 377.463 189.2 378.039 188.848C378.615 188.496 379.313 188.32 380.135 188.32C381.415 188.32 382.241 188.507 382.615 188.88C382.796 189.061 382.908 189.301 382.951 189.6C382.993 189.899 383.015 190.405 383.015 191.12H382.535C382.492 190.448 382.284 189.936 381.911 189.584C381.537 189.221 381.025 189.04 380.375 189.04C379.788 189.04 379.319 189.312 378.967 189.856C378.625 190.389 378.455 191.184 378.455 192.24C378.455 194.373 379.121 195.44 380.455 195.44C380.967 195.44 381.393 195.328 381.735 195.104C382.087 194.869 382.423 194.539 382.743 194.112L383.239 194.48C382.929 194.96 382.54 195.36 382.071 195.68C381.601 196 380.956 196.16 380.135 196.16ZM386.488 189.2H386.008C385.507 189.2 385.128 189.333 384.872 189.6C384.616 189.867 384.488 190.293 384.488 190.88H384.008V189.76C384.008 188.907 384.408 188.48 385.208 188.48H390.984V189.2H388.568V196H386.488V189.2ZM392.389 190.56C392.389 190.016 392.314 189.616 392.165 189.36C392.016 189.093 391.717 188.96 391.269 188.96H391.109V188.48H393.029C393.413 188.48 393.706 188.544 393.909 188.672C394.112 188.8 394.256 189.013 394.341 189.312C394.426 189.6 394.469 190.016 394.469 190.56V191.52H395.669C396.682 191.52 397.482 191.717 398.069 192.112C398.656 192.496 398.949 193.045 398.949 193.76C398.949 194.475 398.656 195.029 398.069 195.424C397.482 195.808 396.682 196 395.669 196H392.389V190.56ZM395.189 195.36C395.669 195.36 396.053 195.237 396.341 194.992C396.64 194.736 396.789 194.325 396.789 193.76C396.789 193.195 396.64 192.789 396.341 192.544C396.053 192.288 395.669 192.16 395.189 192.16C394.933 192.16 394.693 192.197 394.469 192.272V195.248C394.693 195.323 394.933 195.36 395.189 195.36ZM407.506 196.32C406.674 196.32 405.975 196.176 405.41 195.888C404.855 195.6 404.338 195.168 403.858 194.592L404.322 194.176C404.706 194.656 405.148 195.013 405.65 195.248C406.151 195.483 406.647 195.6 407.138 195.6C407.799 195.6 408.332 195.387 408.738 194.96C409.143 194.523 409.346 193.856 409.346 192.96C409.346 192.139 409.127 191.525 408.69 191.12C408.252 190.704 407.628 190.496 406.818 190.496C406.316 190.496 405.65 190.619 404.818 190.864L404.178 190.24L404.354 185.44H410.578V186.144H406.21L406.066 189.84L406.546 189.808C407.09 189.776 407.394 189.76 407.458 189.76C408.108 189.76 408.743 189.861 409.362 190.064C409.991 190.256 410.519 190.592 410.946 191.072C411.372 191.552 411.586 192.181 411.586 192.96C411.586 193.792 411.367 194.459 410.93 194.96C410.492 195.461 409.959 195.813 409.33 196.016C408.711 196.219 408.103 196.32 407.506 196.32Z" fill="#90CC54"/>
<path d="M315.9 185.12H317.98V199.04H315.9V185.12Z" fill="#E2CBA6"/>
<g filter="url(#filter1_d)">
<path d="M136.76 107.32L133.28 109.56L132.32 108.32L138.48 102.6H141.96V129H136.76V107.32ZM155.53 129.8C153.45 129.8 151.703 129.44 150.29 128.72C148.903 128 147.61 126.92 146.41 125.48L147.57 124.44C148.53 125.64 149.636 126.533 150.89 127.12C152.143 127.707 153.383 128 154.61 128C156.263 128 157.596 127.467 158.61 126.4C159.623 125.307 160.13 123.64 160.13 121.4C160.13 119.347 159.583 117.813 158.49 116.8C157.396 115.76 155.836 115.24 153.81 115.24C152.556 115.24 150.89 115.547 148.81 116.16L147.21 114.6L147.65 102.6H163.21V104.36H152.29L151.93 113.6L153.13 113.52C154.49 113.44 155.25 113.4 155.41 113.4C157.036 113.4 158.623 113.653 160.17 114.16C161.743 114.64 163.063 115.48 164.13 116.68C165.196 117.88 165.73 119.453 165.73 121.4C165.73 123.48 165.183 125.147 164.09 126.4C162.996 127.653 161.663 128.533 160.09 129.04C158.543 129.547 157.023 129.8 155.53 129.8Z" fill="url(#paint1_linear)"/>
</g>
<g filter="url(#filter2_d)">
<path d="M123.921 104.312C117.946 104.312 113.37 102.655 109.499 99C105.63 102.655 101.053 104.312 95.0793 104.312C95.0793 113.83 93.0514 127.463 109.499 133C125.948 127.463 123.921 113.83 123.921 104.312Z" fill="url(#paint2_linear)"/>
</g>
<path d="M329.567 53.52C329.567 52.976 329.492 52.576 329.343 52.32C329.194 52.0533 328.895 51.92 328.447 51.92H328.287V51.44H330.207C330.591 51.44 330.884 51.504 331.087 51.632C331.29 51.76 331.434 51.9733 331.519 52.272C331.604 52.56 331.647 52.976 331.647 53.52V56.16H335.967V51.44H338.047V59.92C338.047 60.464 338.122 60.8693 338.271 61.136C338.42 61.392 338.719 61.52 339.167 61.52H339.327V62H337.407C337.023 62 336.73 61.9413 336.527 61.824C336.324 61.696 336.18 61.488 336.095 61.2C336.01 60.9013 335.967 60.4747 335.967 59.92V56.88H331.647V62H329.567V53.52ZM343.694 62.16C342.958 62.16 342.313 61.9893 341.758 61.648C341.203 61.3067 340.771 60.8427 340.462 60.256C340.163 59.6587 340.014 58.9867 340.014 58.24C340.014 57.408 340.163 56.6987 340.462 56.112C340.771 55.5253 341.193 55.0827 341.726 54.784C342.259 54.4747 342.862 54.32 343.534 54.32C344.195 54.32 344.793 54.4533 345.326 54.72C345.859 54.9867 346.281 55.3653 346.59 55.856C346.899 56.336 347.054 56.8907 347.054 57.52L346.99 58.528H342.174C342.174 59.5413 342.329 60.2827 342.638 60.752C342.947 61.2107 343.379 61.44 343.934 61.44C344.446 61.44 344.873 61.328 345.214 61.104C345.566 60.8693 345.902 60.5387 346.222 60.112L346.718 60.48C346.409 60.96 346.019 61.36 345.55 61.68C345.091 62 344.473 62.16 343.694 62.16ZM344.894 57.808C344.894 56.8053 344.777 56.096 344.542 55.68C344.307 55.2533 343.971 55.04 343.534 55.04C343.129 55.04 342.798 55.2587 342.542 55.696C342.297 56.1227 342.174 56.8267 342.174 57.808H344.894ZM351.979 62.16C351.2 62.16 350.517 61.9893 349.931 61.648C349.355 61.296 348.912 60.8267 348.603 60.24C348.293 59.6427 348.139 58.976 348.139 58.24C348.139 57.504 348.293 56.8427 348.603 56.256C348.912 55.6587 349.355 55.1893 349.931 54.848C350.517 54.496 351.2 54.32 351.979 54.32C352.757 54.32 353.435 54.496 354.011 54.848C354.597 55.1893 355.045 55.6587 355.355 56.256C355.664 56.8427 355.819 57.504 355.819 58.24C355.819 58.976 355.664 59.6427 355.355 60.24C355.045 60.8267 354.597 61.296 354.011 61.648C353.435 61.9893 352.757 62.16 351.979 62.16ZM351.979 61.44C352.523 61.44 352.939 61.1467 353.227 60.56C353.515 59.9733 353.659 59.2 353.659 58.24C353.659 57.28 353.515 56.5067 353.227 55.92C352.939 55.3333 352.523 55.04 351.979 55.04C351.435 55.04 351.019 55.3333 350.731 55.92C350.443 56.5067 350.299 57.28 350.299 58.24C350.299 59.2 350.443 59.9733 350.731 60.56C351.019 61.1467 351.435 61.44 351.979 61.44ZM360.791 62.16C359.66 62.16 358.764 61.8133 358.103 61.12C357.441 60.416 357.111 59.4293 357.111 58.16V57.68C357.111 56.3787 357.223 55.3493 357.447 54.592C357.681 53.824 357.996 53.2693 358.391 52.928C358.796 52.576 359.308 52.3307 359.927 52.192L362.151 51.68C362.641 51.5627 363.004 51.4507 363.239 51.344C363.484 51.2267 363.628 51.072 363.671 50.88H364.151V52.16C364.151 52.7147 363.831 53.0613 363.191 53.2L360.567 53.792C359.873 53.9627 359.308 54.3147 358.871 54.848C358.433 55.3707 358.193 56.1013 358.151 57.04H358.231C358.497 56.368 358.86 55.856 359.319 55.504C359.777 55.1413 360.375 54.96 361.111 54.96C362.124 54.96 362.935 55.264 363.543 55.872C364.161 56.4693 364.471 57.3653 364.471 58.56C364.471 59.7653 364.145 60.6667 363.495 61.264C362.855 61.8613 361.953 62.16 360.791 62.16ZM360.791 61.44C361.196 61.44 361.548 61.2213 361.847 60.784C362.156 60.3467 362.311 59.6053 362.311 58.56C362.311 57.8667 362.231 57.3067 362.071 56.88C361.921 56.4427 361.729 56.1333 361.495 55.952C361.271 55.7707 361.036 55.68 360.791 55.68C360.545 55.68 360.305 55.7707 360.071 55.952C359.847 56.1333 359.655 56.4427 359.495 56.88C359.345 57.3067 359.271 57.8667 359.271 58.56C359.271 59.6053 359.42 60.3467 359.719 60.784C360.028 61.2213 360.385 61.44 360.791 61.44ZM366.373 56.56C366.373 56.016 366.299 55.616 366.149 55.36C366 55.0933 365.701 54.96 365.253 54.96H365.093V54.48H367.013C367.397 54.48 367.691 54.544 367.893 54.672C368.096 54.8 368.24 55.0133 368.325 55.312C368.411 55.6 368.453 56.016 368.453 56.56V57.52H369.493C370.507 57.52 371.307 57.7173 371.893 58.112C372.48 58.496 372.773 59.0453 372.773 59.76C372.773 60.4747 372.48 61.0293 371.893 61.424C371.307 61.808 370.507 62 369.493 62H366.373V56.56ZM375.013 62C374.629 62 374.336 61.9413 374.133 61.824C373.931 61.696 373.787 61.488 373.701 61.2C373.616 60.9013 373.573 60.4747 373.573 59.92V54.48H375.653V59.92C375.653 60.464 375.728 60.8693 375.877 61.136C376.027 61.392 376.325 61.52 376.773 61.52H376.933V62H375.013ZM369.173 61.36C369.579 61.36 369.92 61.2373 370.197 60.992C370.475 60.736 370.613 60.3253 370.613 59.76C370.613 59.1947 370.475 58.7893 370.197 58.544C369.92 58.288 369.579 58.16 369.173 58.16C368.917 58.16 368.677 58.1973 368.453 58.272V61.248C368.677 61.3227 368.917 61.36 369.173 61.36ZM382.746 59.152C382.565 59.2267 382.346 59.296 382.09 59.36C381.834 59.4133 381.573 59.44 381.306 59.44C380.399 59.44 379.663 59.248 379.098 58.864C378.543 58.4693 378.266 57.8613 378.266 57.04V56.56C378.266 56.016 378.191 55.616 378.042 55.36C377.893 55.0933 377.594 54.96 377.146 54.96H376.986V54.48H378.906C379.29 54.48 379.583 54.544 379.786 54.672C379.989 54.8 380.133 55.0133 380.218 55.312C380.303 55.6 380.346 56.016 380.346 56.56V57.04C380.346 58.16 380.789 58.72 381.674 58.72C381.909 58.72 382.101 58.704 382.25 58.672C382.41 58.6293 382.575 58.56 382.746 58.464V54.48H384.826V62H382.746V59.152ZM387.045 56.56C387.045 56.016 386.971 55.616 386.821 55.36C386.672 55.0933 386.373 54.96 385.925 54.96H385.765V54.48H387.685C388.069 54.48 388.363 54.544 388.565 54.672C388.768 54.8 388.912 55.0133 388.997 55.312C389.083 55.6 389.125 56.016 389.125 56.56V57.84H391.685V54.48H393.765V59.92C393.765 60.464 393.84 60.8693 393.989 61.136C394.139 61.392 394.437 61.52 394.885 61.52H395.045V62H393.125C392.741 62 392.448 61.9413 392.245 61.824C392.043 61.696 391.899 61.488 391.813 61.2C391.728 60.9013 391.685 60.4747 391.685 59.92V58.56H389.125V62H387.045V56.56ZM399.447 62.16C398.669 62.16 397.986 61.9893 397.399 61.648C396.823 61.296 396.381 60.8267 396.071 60.24C395.762 59.6427 395.607 58.976 395.607 58.24C395.607 57.504 395.762 56.8427 396.071 56.256C396.381 55.6587 396.823 55.1893 397.399 54.848C397.986 54.496 398.669 54.32 399.447 54.32C400.226 54.32 400.903 54.496 401.479 54.848C402.066 55.1893 402.514 55.6587 402.823 56.256C403.133 56.8427 403.287 57.504 403.287 58.24C403.287 58.976 403.133 59.6427 402.823 60.24C402.514 60.8267 402.066 61.296 401.479 61.648C400.903 61.9893 400.226 62.16 399.447 62.16ZM399.447 61.44C399.991 61.44 400.407 61.1467 400.695 60.56C400.983 59.9733 401.127 59.2 401.127 58.24C401.127 57.28 400.983 56.5067 400.695 55.92C400.407 55.3333 399.991 55.04 399.447 55.04C398.903 55.04 398.487 55.3333 398.199 55.92C397.911 56.5067 397.767 57.28 397.767 58.24C397.767 59.2 397.911 59.9733 398.199 60.56C398.487 61.1467 398.903 61.44 399.447 61.44ZM408.131 62.16C407.395 62.16 406.75 61.9893 406.195 61.648C405.641 61.3067 405.209 60.8427 404.899 60.256C404.601 59.6587 404.451 58.9867 404.451 58.24C404.451 57.408 404.601 56.6987 404.899 56.112C405.209 55.5253 405.63 55.0827 406.163 54.784C406.697 54.4747 407.299 54.32 407.971 54.32C408.633 54.32 409.23 54.4533 409.763 54.72C410.297 54.9867 410.718 55.3653 411.027 55.856C411.337 56.336 411.491 56.8907 411.491 57.52L411.427 58.528H406.611C406.611 59.5413 406.766 60.2827 407.075 60.752C407.385 61.2107 407.817 61.44 408.371 61.44C408.883 61.44 409.31 61.328 409.651 61.104C410.003 60.8693 410.339 60.5387 410.659 60.112L411.155 60.48C410.846 60.96 410.457 61.36 409.987 61.68C409.529 62 408.91 62.16 408.131 62.16ZM409.331 57.808C409.331 56.8053 409.214 56.096 408.979 55.68C408.745 55.2533 408.409 55.04 407.971 55.04C407.566 55.04 407.235 55.2587 406.979 55.696C406.734 56.1227 406.611 56.8267 406.611 57.808H409.331Z" fill="#64C337"/>
<g clip-path="url(#clip0)">
<g filter="url(#filter3_i)">
<path d="M72.973 94H22.027C18.1461 94 15 97.1461 15 101.027V151.973C15 155.854 18.1461 159 22.027 159H72.973C76.8539 159 80 155.854 80 151.973V101.027C80 97.1461 76.8539 94 72.973 94Z" fill="#0C0C0C"/>
</g>
<path d="M72.9735 94.8784H22.0276C18.6318 94.8784 15.8789 97.6312 15.8789 101.027V151.973C15.8789 155.369 18.6318 158.122 22.0276 158.122H72.9735C76.3693 158.122 79.1222 155.369 79.1222 151.973V101.027C79.1222 97.6312 76.3693 94.8784 72.9735 94.8784Z" stroke="url(#paint3_linear)" stroke-width="2"/>
</g>
<g filter="url(#filter4_d)">
<path d="M28.808 33.48C27.256 33.48 25.872 33.112 24.656 32.376C23.456 31.64 22.528 30.632 21.872 29.352C21.216 28.072 20.888 26.648 20.888 25.08C20.888 23.512 21.216 22.088 21.872 20.808C22.528 19.528 23.456 18.52 24.656 17.784C25.872 17.048 27.256 16.68 28.808 16.68C30.36 16.68 31.736 17.048 32.936 17.784C34.136 18.52 35.064 19.528 35.72 20.808C36.376 22.088 36.704 23.512 36.704 25.08C36.704 26.648 36.376 28.072 35.72 29.352C35.064 30.632 34.136 31.64 32.936 32.376C31.736 33.112 30.36 33.48 28.808 33.48ZM28.808 32.4C30.264 32.4 31.392 31.768 32.192 30.504C32.992 29.224 33.392 27.416 33.392 25.08C33.392 22.744 32.992 20.944 32.192 19.68C31.392 18.4 30.264 17.76 28.808 17.76C27.352 17.76 26.224 18.4 25.424 19.68C24.64 20.944 24.248 22.744 24.248 25.08C24.248 27.416 24.64 29.224 25.424 30.504C26.224 31.768 27.352 32.4 28.808 32.4ZM44.2016 33.24C42.5056 33.24 41.1616 32.72 40.1696 31.68C39.1776 30.624 38.6816 29.144 38.6816 27.24V26.52C38.6816 24.568 38.8496 23.024 39.1856 21.888C39.5376 20.736 40.0096 19.904 40.6016 19.392C41.2096 18.864 41.9776 18.496 42.9056 18.288L46.2416 17.52C46.9776 17.344 47.5216 17.176 47.8736 17.016C48.2416 16.84 48.4576 16.608 48.5216 16.32H49.2416V18.24C49.2416 19.072 48.7616 19.592 47.8016 19.8L43.8656 20.688C42.8256 20.944 41.9776 21.472 41.3216 22.272C40.6656 23.056 40.3056 24.152 40.2416 25.56H40.3616C40.7616 24.552 41.3056 23.784 41.9936 23.256C42.6816 22.712 43.5776 22.44 44.6816 22.44C46.2016 22.44 47.4176 22.896 48.3296 23.808C49.2576 24.704 49.7216 26.048 49.7216 27.84C49.7216 29.648 49.2336 31 48.2576 31.896C47.2976 32.792 45.9456 33.24 44.2016 33.24ZM44.2016 32.16C44.8096 32.16 45.3376 31.832 45.7856 31.176C46.2496 30.52 46.4816 29.408 46.4816 27.84C46.4816 26.8 46.3616 25.96 46.1216 25.32C45.8976 24.664 45.6096 24.2 45.2576 23.928C44.9216 23.656 44.5696 23.52 44.2016 23.52C43.8336 23.52 43.4736 23.656 43.1216 23.928C42.7856 24.2 42.4976 24.664 42.2576 25.32C42.0336 25.96 41.9216 26.8 41.9216 27.84C41.9216 29.408 42.1456 30.52 42.5936 31.176C43.0576 31.832 43.5936 32.16 44.2016 32.16ZM57.3037 33.24C56.1357 33.24 55.1117 32.984 54.2317 32.472C53.3677 31.944 52.7037 31.24 52.2397 30.36C51.7757 29.464 51.5437 28.464 51.5437 27.36C51.5437 26.256 51.7757 25.264 52.2397 24.384C52.7037 23.488 53.3677 22.784 54.2317 22.272C55.1117 21.744 56.1357 21.48 57.3037 21.48C58.4717 21.48 59.4877 21.744 60.3517 22.272C61.2317 22.784 61.9037 23.488 62.3677 24.384C62.8317 25.264 63.0637 26.256 63.0637 27.36C63.0637 28.464 62.8317 29.464 62.3677 30.36C61.9037 31.24 61.2317 31.944 60.3517 32.472C59.4877 32.984 58.4717 33.24 57.3037 33.24ZM57.3037 32.16C58.1197 32.16 58.7437 31.72 59.1757 30.84C59.6077 29.96 59.8237 28.8 59.8237 27.36C59.8237 25.92 59.6077 24.76 59.1757 23.88C58.7437 23 58.1197 22.56 57.3037 22.56C56.4877 22.56 55.8637 23 55.4317 23.88C54.9997 24.76 54.7837 25.92 54.7837 27.36C54.7837 28.8 54.9997 29.96 55.4317 30.84C55.8637 31.72 56.4877 32.16 57.3037 32.16ZM70.5459 33.24C69.3139 33.24 68.2659 32.976 67.4019 32.448C66.5379 31.92 65.8819 31.216 65.4339 30.336C65.0019 29.44 64.7859 28.448 64.7859 27.36C64.7859 26.272 65.0019 25.288 65.4339 24.408C65.8819 23.512 66.5379 22.8 67.4019 22.272C68.2659 21.744 69.3139 21.48 70.5459 21.48C72.4659 21.48 73.7059 21.76 74.2659 22.32C74.5379 22.592 74.7059 22.952 74.7699 23.4C74.8339 23.848 74.8659 24.608 74.8659 25.68H74.1459C74.0819 24.672 73.7699 23.904 73.2099 23.376C72.6499 22.832 71.8819 22.56 70.9059 22.56C70.0259 22.56 69.3219 22.968 68.7939 23.784C68.2819 24.584 68.0259 25.776 68.0259 27.36C68.0259 30.56 69.0259 32.16 71.0259 32.16C71.7939 32.16 72.4339 31.992 72.9459 31.656C73.4739 31.304 73.9779 30.808 74.4579 30.168L75.2019 30.72C74.7379 31.44 74.1539 32.04 73.4499 32.52C72.7459 33 71.7779 33.24 70.5459 33.24ZM80.6041 33.24C79.3081 33.24 78.3001 32.952 77.5801 32.376C76.8761 31.784 76.5241 30.992 76.5241 30C76.5241 29.2 76.7081 28.536 77.0761 28.008C77.4601 27.48 78.1241 27.08 79.0681 26.808C80.0121 26.536 81.3241 26.4 83.0041 26.4H83.3641C83.3641 25.008 83.1721 24.024 82.7881 23.448C82.4041 22.856 81.8361 22.56 81.0841 22.56C80.4601 22.56 79.9481 22.712 79.5481 23.016C79.1481 23.32 78.8601 23.888 78.6841 24.72H77.3641C77.3641 24.176 77.3961 23.712 77.4601 23.328C77.5401 22.944 77.7081 22.608 77.9641 22.32C78.4601 21.76 79.6601 21.48 81.5641 21.48C83.1641 21.48 84.3801 21.904 85.2121 22.752C86.0601 23.584 86.4841 24.84 86.4841 26.52V33H84.4441L83.6041 31.92H83.4841C83.2441 32.288 82.8681 32.6 82.3561 32.856C81.8601 33.112 81.2761 33.24 80.6041 33.24ZM81.3241 32.04C81.8041 32.04 82.2201 31.88 82.5721 31.56C82.9401 31.24 83.2041 30.88 83.3641 30.48V27.48H83.0041C81.8681 27.48 81.0441 27.688 80.5321 28.104C80.0201 28.504 79.7641 29.136 79.7641 30C79.7641 30.656 79.9001 31.16 80.1721 31.512C80.4441 31.864 80.8281 32.04 81.3241 32.04ZM89.6304 24.84C89.6304 24.024 89.5184 23.424 89.2944 23.04C89.0704 22.64 88.6224 22.44 87.9504 22.44H87.7104V21.72H90.5904C91.1664 21.72 91.6064 21.816 91.9104 22.008C92.2144 22.2 92.4304 22.52 92.5584 22.968C92.6864 23.4 92.7504 24.024 92.7504 24.84V26.76H96.5904V21.72H99.7104V29.88C99.7104 30.696 99.8224 31.304 100.046 31.704C100.27 32.088 100.718 32.28 101.39 32.28H101.63V33H98.7504C98.1744 33 97.7344 32.912 97.4304 32.736C97.1264 32.544 96.9104 32.232 96.7824 31.8C96.6544 31.352 96.5904 30.712 96.5904 29.88V27.84H92.7504V33H89.6304V24.84ZM103.505 24.84C103.505 24.024 103.393 23.424 103.169 23.04C102.945 22.64 102.497 22.44 101.825 22.44H101.585V21.72H104.465C105.041 21.72 105.481 21.816 105.785 22.008C106.089 22.2 106.305 22.52 106.433 22.968C106.561 23.4 106.625 24.024 106.625 24.84V26.76H110.465V21.72H113.585V29.88C113.585 30.696 113.697 31.304 113.921 31.704C114.145 32.088 114.593 32.28 115.265 32.28H115.505V33H112.625C112.049 33 111.609 32.912 111.305 32.736C111.001 32.544 110.785 32.232 110.657 31.8C110.529 31.352 110.465 30.712 110.465 29.88V27.84H106.625V33H103.505V24.84ZM117.38 24.84C117.38 24.024 117.268 23.424 117.044 23.04C116.82 22.64 116.372 22.44 115.7 22.44H115.46V21.72H118.34C118.916 21.72 119.356 21.816 119.66 22.008C119.964 22.2 120.18 22.52 120.308 22.968C120.436 23.4 120.5 24.024 120.5 24.84V26.28H122.06C123.58 26.28 124.78 26.576 125.66 27.168C126.54 27.744 126.98 28.568 126.98 29.64C126.98 30.712 126.54 31.544 125.66 32.136C124.78 32.712 123.58 33 122.06 33H117.38V24.84ZM130.34 33C129.764 33 129.324 32.912 129.02 32.736C128.716 32.544 128.5 32.232 128.372 31.8C128.244 31.352 128.18 30.712 128.18 29.88V21.72H131.3V29.88C131.3 30.696 131.412 31.304 131.636 31.704C131.86 32.088 132.308 32.28 132.98 32.28H133.22V33H130.34ZM121.58 32.04C122.188 32.04 122.7 31.856 123.116 31.488C123.532 31.104 123.74 30.488 123.74 29.64C123.74 28.792 123.532 28.184 123.116 27.816C122.7 27.432 122.188 27.24 121.58 27.24C121.196 27.24 120.836 27.296 120.5 27.408V31.872C120.836 31.984 121.196 32.04 121.58 32.04ZM135.099 24.84C135.099 24.024 134.987 23.424 134.763 23.04C134.539 22.64 134.091 22.44 133.419 22.44H133.179V21.72H136.059C136.635 21.72 137.075 21.816 137.379 22.008C137.683 22.2 137.899 22.52 138.027 22.968C138.155 23.4 138.219 24.024 138.219 24.84V30L142.539 21.72H145.419V33H142.299V24.72L137.979 33H135.099V24.84ZM140.043 20.76C139.275 20.76 138.595 20.56 138.003 20.16C137.411 19.744 136.963 19.192 136.659 18.504L137.331 18C137.603 18.336 137.963 18.624 138.411 18.864C138.875 19.088 139.419 19.2 140.043 19.2C140.667 19.2 141.203 19.088 141.651 18.864C142.115 18.624 142.483 18.336 142.755 18L143.427 18.504C143.123 19.192 142.675 19.744 142.083 20.16C141.491 20.56 140.811 20.76 140.043 20.76ZM170.123 36.84C170.043 35.816 169.891 35.024 169.667 34.464C169.443 33.92 169.147 33.536 168.779 33.312C168.427 33.104 167.979 33 167.435 33H154.763V24.84C154.763 24.024 154.651 23.424 154.427 23.04C154.203 22.64 153.755 22.44 153.083 22.44H152.843V21.72H155.723C156.299 21.72 156.739 21.816 157.043 22.008C157.347 22.2 157.563 22.52 157.691 22.968C157.819 23.4 157.883 24.024 157.883 24.84V31.92H160.643V21.72H163.763V31.92H166.523V21.72H169.643V31.92H170.363C170.603 31.92 170.803 32 170.963 32.16C171.123 32.32 171.203 32.52 171.203 32.76V36.84H170.123ZM173.302 24.84C173.302 24.024 173.19 23.424 172.966 23.04C172.742 22.64 172.294 22.44 171.622 22.44H171.382V21.72H174.262C174.838 21.72 175.278 21.816 175.582 22.008C175.886 22.2 176.102 22.52 176.23 22.968C176.358 23.4 176.422 24.024 176.422 24.84V30L180.742 21.72H183.622V33H180.502V24.72L176.182 33H173.302V24.84ZM189.318 22.8H188.598C187.846 22.8 187.278 23 186.894 23.4C186.51 23.8 186.318 24.44 186.318 25.32H185.598V23.64C185.598 22.36 186.198 21.72 187.398 21.72H196.062V22.8H192.438V33H189.318V22.8Z" fill="#D0D0D0"/>
</g>
<g filter="url(#filter5_d)">
<path d="M34.32 55.96C34.2347 55.192 34.1067 54.5947 33.936 54.168C33.776 53.7413 33.568 53.4373 33.312 53.256C33.056 53.0853 32.7253 53 32.32 53H21.52V44.52C21.52 43.976 21.4453 43.576 21.296 43.32C21.1467 43.0533 20.848 42.92 20.4 42.92H20.24V42.44H22.16C22.544 42.44 22.8373 42.504 23.04 42.632C23.2427 42.76 23.3867 42.9733 23.472 43.272C23.5573 43.56 23.6 43.976 23.6 44.52V52.28H26.72V42.44H28.8V52.28H31.92V42.44H34V52.28H34.56C34.72 52.28 34.8533 52.3333 34.96 52.44C35.0667 52.5467 35.12 52.68 35.12 52.84V55.96H34.32ZM36.7171 47.56C36.7171 47.016 36.6425 46.616 36.4931 46.36C36.3438 46.0933 36.0451 45.96 35.5971 45.96H35.4371V45.48H37.3571C37.7411 45.48 38.0345 45.544 38.2371 45.672C38.4398 45.8 38.5838 46.0133 38.6691 46.312C38.7545 46.6 38.7971 47.016 38.7971 47.56V51L41.6771 45.48H43.5971V53H41.5171V47.48L38.6371 53H36.7171V47.56ZM47.3945 46.2H46.9145C46.4132 46.2 46.0345 46.3333 45.7785 46.6C45.5225 46.8667 45.3945 47.2933 45.3945 47.88H44.9145V46.76C44.9145 45.9067 45.3145 45.48 46.1145 45.48H51.8905V46.2H49.4745V53H47.3945V46.2Z" fill="#777777"/>
</g>
<rect x="52.5" y="224.5" width="58" height="21" rx="2.5" fill="#2A2D33" stroke="#EAC48B"/>
<path d="M64.8368 240.272C64.2394 240.272 63.6634 240.192 63.1088 240.032C62.5541 239.883 62.1008 239.664 61.7488 239.376C61.3968 239.077 61.2208 238.736 61.2208 238.352V236.48H61.6688C61.8288 237.568 62.1648 238.352 62.6768 238.832C63.1888 239.312 63.9034 239.552 64.8208 239.552C65.4394 239.552 65.9301 239.419 66.2928 239.152C66.6554 238.885 66.8368 238.501 66.8368 238C66.8368 237.573 66.7034 237.211 66.4368 236.912C66.1701 236.613 65.7541 236.288 65.1888 235.936L63.2208 234.752C62.5061 234.336 61.9941 233.904 61.6848 233.456C61.3861 233.008 61.2368 232.485 61.2368 231.888C61.2368 231.045 61.5568 230.379 62.1968 229.888C62.8474 229.397 63.7221 229.152 64.8208 229.152C65.4181 229.152 65.9941 229.232 66.5488 229.392C67.1034 229.541 67.5568 229.765 67.9088 230.064C68.2608 230.352 68.4368 230.688 68.4368 231.072V232.944H67.9888C67.8074 231.856 67.4714 231.072 66.9808 230.592C66.4901 230.112 65.8288 229.872 64.9968 229.872C64.4208 229.872 63.9621 230.011 63.6208 230.288C63.2901 230.565 63.1248 230.944 63.1248 231.424C63.1248 231.84 63.2528 232.187 63.5088 232.464C63.7754 232.731 64.2021 233.035 64.7888 233.376L66.7568 234.544C67.5034 234.981 68.0368 235.408 68.3568 235.824C68.6874 236.229 68.8528 236.72 68.8528 237.296C68.8528 238.224 68.5008 238.955 67.7968 239.488C67.1034 240.011 66.1168 240.272 64.8368 240.272ZM70.7175 234.56C70.7175 234.016 70.6428 233.616 70.4935 233.36C70.3548 233.093 70.0615 232.96 69.6135 232.96H69.4535V232.48H71.0375C71.4108 232.48 71.6988 232.533 71.9015 232.64C72.1042 232.736 72.2642 232.907 72.3815 233.152C73.0108 232.597 73.7362 232.32 74.5575 232.32C75.6348 232.32 76.4615 232.688 77.0375 233.424C77.6242 234.149 77.9175 235.088 77.9175 236.24C77.9175 237.392 77.6188 238.336 77.0215 239.072C76.4348 239.797 75.5868 240.16 74.4775 240.16C74.1468 240.16 73.8268 240.112 73.5175 240.016C73.2082 239.92 72.9682 239.808 72.7975 239.68V243.04H70.7175V234.56ZM74.1575 239.44C75.2242 239.44 75.7575 238.373 75.7575 236.24C75.7575 235.259 75.6348 234.48 75.3895 233.904C75.1442 233.328 74.7602 233.04 74.2375 233.04C73.6828 233.04 73.2028 233.221 72.7975 233.584V238.96C72.9362 239.088 73.1335 239.2 73.3895 239.296C73.6455 239.392 73.9015 239.44 74.1575 239.44ZM81.6996 240.16C80.8356 240.16 80.1636 239.968 79.6836 239.584C79.2143 239.189 78.9796 238.661 78.9796 238C78.9796 237.467 79.1023 237.024 79.3476 236.672C79.6036 236.32 80.0463 236.053 80.6756 235.872C81.305 235.691 82.1796 235.6 83.2996 235.6H83.5396C83.5396 234.672 83.4116 234.016 83.1556 233.632C82.8996 233.237 82.521 233.04 82.0196 233.04C81.6036 233.04 81.2623 233.141 80.9956 233.344C80.729 233.547 80.537 233.925 80.4196 234.48H79.5396C79.5396 234.117 79.561 233.808 79.6036 233.552C79.657 233.296 79.769 233.072 79.9396 232.88C80.2703 232.507 81.0703 232.32 82.3396 232.32C83.4063 232.32 84.217 232.603 84.7716 233.168C85.337 233.723 85.6196 234.56 85.6196 235.68V240H84.2596L83.6996 239.28H83.6196C83.4596 239.525 83.209 239.733 82.8676 239.904C82.537 240.075 82.1476 240.16 81.6996 240.16ZM82.1796 239.36C82.4996 239.36 82.777 239.253 83.0116 239.04C83.257 238.827 83.433 238.587 83.5396 238.32V236.32H83.2996C82.5423 236.32 81.993 236.459 81.6516 236.736C81.3103 237.003 81.1396 237.424 81.1396 238C81.1396 238.437 81.2303 238.773 81.4116 239.008C81.593 239.243 81.849 239.36 82.1796 239.36ZM90.8691 240.16C90.0478 240.16 89.3491 239.984 88.7731 239.632C88.1971 239.28 87.7598 238.811 87.4611 238.224C87.1731 237.627 87.0291 236.965 87.0291 236.24C87.0291 235.515 87.1731 234.859 87.4611 234.272C87.7598 233.675 88.1971 233.2 88.7731 232.848C89.3491 232.496 90.0478 232.32 90.8691 232.32C92.1491 232.32 92.9758 232.507 93.3491 232.88C93.5305 233.061 93.6425 233.301 93.6851 233.6C93.7278 233.899 93.7491 234.405 93.7491 235.12H93.2691C93.2265 234.448 93.0185 233.936 92.6451 233.584C92.2718 233.221 91.7598 233.04 91.1091 233.04C90.5225 233.04 90.0531 233.312 89.7011 233.856C89.3598 234.389 89.1891 235.184 89.1891 236.24C89.1891 238.373 89.8558 239.44 91.1891 239.44C91.7011 239.44 92.1278 239.328 92.4691 239.104C92.8211 238.869 93.1571 238.539 93.4771 238.112L93.9731 238.48C93.6638 238.96 93.2745 239.36 92.8051 239.68C92.3358 240 91.6905 240.16 90.8691 240.16ZM98.6626 240.16C97.9266 240.16 97.2813 239.989 96.7266 239.648C96.172 239.307 95.74 238.843 95.4306 238.256C95.132 237.659 94.9826 236.987 94.9826 236.24C94.9826 235.408 95.132 234.699 95.4306 234.112C95.74 233.525 96.1613 233.083 96.6946 232.784C97.228 232.475 97.8306 232.32 98.5026 232.32C99.164 232.32 99.7613 232.453 100.295 232.72C100.828 232.987 101.249 233.365 101.559 233.856C101.868 234.336 102.023 234.891 102.023 235.52L101.959 236.528H97.1426C97.1426 237.541 97.2973 238.283 97.6066 238.752C97.916 239.211 98.348 239.44 98.9026 239.44C99.4146 239.44 99.8413 239.328 100.183 239.104C100.535 238.869 100.871 238.539 101.191 238.112L101.687 238.48C101.377 238.96 100.988 239.36 100.519 239.68C100.06 240 99.4413 240.16 98.6626 240.16ZM99.8626 235.808C99.8626 234.805 99.7453 234.096 99.5106 233.68C99.276 233.253 98.94 233.04 98.5026 233.04C98.0973 233.04 97.7666 233.259 97.5106 233.696C97.2653 234.123 97.1426 234.827 97.1426 235.808H99.8626Z" fill="#FFD37E"/>
<path d="M121.976 240.32C120.941 240.32 120.061 240.117 119.336 239.712C118.621 239.307 118.013 238.635 117.512 237.696L117.896 237.408C118.792 238.912 119.992 239.664 121.496 239.664C122.317 239.664 123.005 239.451 123.56 239.024C124.115 238.587 124.525 238.021 124.792 237.328C125.069 236.624 125.224 235.861 125.256 235.04H120.04V234.384H125.24C125.165 232.773 124.787 231.605 124.104 230.88C123.421 230.144 122.552 229.776 121.496 229.776C119.704 229.776 118.611 230.789 118.216 232.816H117.864C117.864 232.155 117.885 231.643 117.928 231.28C117.971 230.917 118.083 230.624 118.264 230.4C118.573 230.027 119.048 229.723 119.688 229.488C120.339 229.243 121.101 229.12 121.976 229.12C122.893 229.12 123.736 229.376 124.504 229.888C125.283 230.4 125.896 231.099 126.344 231.984C126.792 232.859 127.016 233.824 127.016 234.88C127.016 235.893 126.808 236.816 126.392 237.648C125.987 238.469 125.4 239.12 124.632 239.6C123.875 240.08 122.989 240.32 121.976 240.32ZM134.791 240.16C133.906 240.16 133.127 239.733 132.455 238.88L130.695 236.64V240H129.079V234.448C129.079 233.904 129.004 233.504 128.855 233.248C128.706 232.981 128.407 232.848 127.959 232.848H127.687V232.48H129.255C129.639 232.48 129.932 232.533 130.135 232.64C130.338 232.747 130.482 232.939 130.567 233.216C130.652 233.493 130.695 233.904 130.695 234.448V236.256L132.679 233.568C132.956 233.205 133.255 232.933 133.575 232.752C133.895 232.571 134.306 232.48 134.807 232.48H135.191V232.88C134.583 232.88 134.092 233.131 133.719 233.632L132.007 235.952L133.927 238.4C134.215 238.784 134.498 239.083 134.775 239.296C135.052 239.499 135.351 239.627 135.671 239.68V240C135.575 240.043 135.442 240.08 135.271 240.112C135.111 240.144 134.951 240.16 134.791 240.16ZM137.046 234.448C137.046 233.904 136.971 233.504 136.822 233.248C136.672 232.981 136.374 232.848 135.926 232.848H135.782V232.48H143.286V240H141.686V233.136H138.646V240H137.046V234.448ZM145.735 234.448C145.735 233.904 145.66 233.504 145.511 233.248C145.361 232.981 145.063 232.848 144.615 232.848H144.391V232.48H145.911C146.295 232.48 146.588 232.533 146.791 232.64C146.993 232.747 147.137 232.939 147.223 233.216C147.308 233.493 147.351 233.904 147.351 234.448V238.416L150.583 232.48H152.151V240H150.535V234.064L147.303 240H145.735V234.448ZM154.514 234.448C154.514 233.904 154.44 233.504 154.29 233.248C154.141 232.981 153.842 232.848 153.394 232.848H153.25V232.48H160.754V240H159.154V233.136H156.114V240H154.514V234.448ZM163.203 234.448C163.203 233.904 163.129 233.504 162.979 233.248C162.83 232.981 162.531 232.848 162.083 232.848H161.859V232.48H163.379C163.763 232.48 164.057 232.533 164.259 232.64C164.462 232.747 164.606 232.939 164.691 233.216C164.777 233.493 164.819 233.904 164.819 234.448V238.416L168.051 232.48H169.619V240H168.003V234.064L164.771 240H163.203V234.448ZM172.063 234.448C172.063 233.904 171.988 233.504 171.839 233.248C171.69 232.981 171.391 232.848 170.943 232.848H170.671V232.48H172.143C172.538 232.48 172.836 232.533 173.039 232.64C173.252 232.747 173.407 232.928 173.503 233.184C174.132 232.608 174.874 232.32 175.727 232.32C176.687 232.32 177.428 232.688 177.951 233.424C178.474 234.16 178.735 235.099 178.735 236.24C178.735 237.392 178.463 238.336 177.919 239.072C177.386 239.797 176.607 240.16 175.583 240.16C174.911 240.16 174.276 240 173.679 239.68V243.04H172.063V234.448ZM175.151 239.504C175.802 239.504 176.276 239.211 176.575 238.624C176.884 238.027 177.039 237.232 177.039 236.24C177.039 235.259 176.895 234.469 176.607 233.872C176.319 233.275 175.882 232.976 175.295 232.976C174.602 232.976 174.063 233.264 173.679 233.84V239.024C173.967 239.173 174.228 239.291 174.463 239.376C174.698 239.461 174.927 239.504 175.151 239.504ZM183.726 240.16C182.99 240.16 182.35 239.989 181.806 239.648C181.262 239.296 180.846 238.827 180.558 238.24C180.27 237.643 180.126 236.976 180.126 236.24C180.126 235.504 180.27 234.843 180.558 234.256C180.846 233.659 181.262 233.189 181.806 232.848C182.35 232.496 182.99 232.32 183.726 232.32C184.462 232.32 185.102 232.496 185.646 232.848C186.19 233.189 186.606 233.659 186.894 234.256C187.182 234.843 187.326 235.504 187.326 236.24C187.326 236.976 187.182 237.643 186.894 238.24C186.606 238.827 186.19 239.296 185.646 239.648C185.102 239.989 184.462 240.16 183.726 240.16ZM183.726 239.504C184.302 239.504 184.766 239.195 185.118 238.576C185.47 237.957 185.646 237.179 185.646 236.24C185.646 235.301 185.47 234.523 185.118 233.904C184.766 233.285 184.302 232.976 183.726 232.976C183.15 232.976 182.686 233.285 182.334 233.904C181.982 234.523 181.806 235.301 181.806 236.24C181.806 237.179 181.982 237.957 182.334 238.576C182.686 239.195 183.15 239.504 183.726 239.504ZM189.296 234.448C189.296 233.904 189.221 233.504 189.072 233.248C188.922 232.981 188.624 232.848 188.176 232.848H188.032V232.48H192.048C192.965 232.48 193.706 232.635 194.272 232.944C194.848 233.253 195.136 233.739 195.136 234.4C195.136 234.859 194.997 235.227 194.72 235.504C194.442 235.781 194.01 235.973 193.424 236.08C194.064 236.197 194.56 236.416 194.912 236.736C195.274 237.045 195.456 237.44 195.456 237.92C195.456 238.667 195.157 239.2 194.56 239.52C193.962 239.84 193.125 240 192.048 240H189.296V234.448ZM191.696 235.744C192.24 235.744 192.666 235.627 192.976 235.392C193.296 235.157 193.456 234.827 193.456 234.4C193.456 233.973 193.301 233.643 192.992 233.408C192.693 233.173 192.314 233.056 191.856 233.056C191.717 233.056 191.552 233.072 191.36 233.104C191.178 233.136 191.024 233.173 190.896 233.216V235.744H191.696ZM191.856 239.424C192.474 239.424 192.949 239.301 193.28 239.056C193.61 238.8 193.776 238.421 193.776 237.92C193.776 237.419 193.6 237.04 193.248 236.784C192.896 236.528 192.378 236.4 191.696 236.4H190.896V239.264C191.024 239.307 191.178 239.344 191.36 239.376C191.552 239.408 191.717 239.424 191.856 239.424ZM199.133 240.16C198.482 240.16 197.912 239.979 197.421 239.616C196.941 239.243 196.701 238.683 196.701 237.936C196.701 237.136 197.064 236.56 197.789 236.208C198.514 235.845 199.533 235.664 200.845 235.664H201.261C201.261 234.651 201.122 233.952 200.845 233.568C200.568 233.173 200.162 232.976 199.629 232.976C199.17 232.976 198.797 233.083 198.509 233.296C198.232 233.499 198.034 233.856 197.917 234.368H197.149C197.149 234.005 197.17 233.712 197.213 233.488C197.256 233.264 197.368 233.061 197.549 232.88C197.741 232.688 198.05 232.549 198.477 232.464C198.914 232.368 199.405 232.32 199.949 232.32C200.866 232.32 201.581 232.565 202.093 233.056C202.616 233.547 202.877 234.421 202.877 235.68V240H201.933L201.373 239.28H201.293C201.101 239.525 200.824 239.733 200.461 239.904C200.098 240.075 199.656 240.16 199.133 240.16ZM199.789 239.424C200.408 239.424 200.898 239.093 201.261 238.432V236.32H200.845C200.056 236.32 199.448 236.464 199.021 236.752C198.605 237.029 198.397 237.424 198.397 237.936C198.397 238.416 198.525 238.784 198.781 239.04C199.048 239.296 199.384 239.424 199.789 239.424ZM207.043 233.136H206.323C205.832 233.136 205.437 233.275 205.139 233.552C204.84 233.829 204.691 234.235 204.691 234.768H204.323V233.76C204.323 232.907 204.723 232.48 205.523 232.48H211.235V233.136H208.643V240H207.043V233.136ZM212.782 234.448C212.782 233.904 212.707 233.504 212.558 233.248C212.408 232.981 212.11 232.848 211.662 232.848H211.438V232.48H212.958C213.342 232.48 213.635 232.533 213.838 232.64C214.04 232.747 214.184 232.939 214.27 233.216C214.355 233.493 214.398 233.904 214.398 234.448V235.52H215.598C216.611 235.52 217.411 235.696 217.998 236.048C218.584 236.4 218.878 236.971 218.878 237.76C218.878 238.549 218.584 239.12 217.998 239.472C217.411 239.824 216.611 240 215.598 240H212.782V234.448ZM215.342 239.424C215.939 239.424 216.392 239.296 216.702 239.04C217.022 238.773 217.182 238.347 217.182 237.76C217.182 237.173 217.022 236.752 216.702 236.496C216.392 236.229 215.939 236.096 215.342 236.096C215.214 236.096 215.054 236.112 214.862 236.144C214.68 236.176 214.526 236.213 214.398 236.256V239.264C214.526 239.307 214.68 239.344 214.862 239.376C215.054 239.408 215.214 239.424 215.342 239.424Z" fill="#E2CBA6"/>
<rect x="255.5" y="224.5" width="58" height="21" rx="2.5" fill="#2A2D33" stroke="#EAC48B"/>
<path d="M273.512 231.52C273.512 230.976 273.438 230.576 273.288 230.32C273.139 230.053 272.84 229.92 272.392 229.92H272.232V229.44H279.288C280.195 229.44 280.648 229.867 280.648 230.72V232.08H280.168C280.168 231.419 279.998 230.933 279.656 230.624C279.326 230.315 278.83 230.16 278.168 230.16H275.592V234.16H279.752V234.88H275.592V239.28H278.328C278.936 239.28 279.443 239.147 279.848 238.88C280.254 238.603 280.59 238.128 280.856 237.456L281.288 237.616L280.824 238.88C280.686 239.264 280.52 239.547 280.328 239.728C280.136 239.909 279.838 240 279.432 240H273.512V231.52ZM285.25 240.16C284.002 240.16 283.143 239.941 282.674 239.504C282.503 239.344 282.397 239.12 282.354 238.832C282.311 238.533 282.29 238.123 282.29 237.6H282.85C282.946 238.155 283.165 238.603 283.506 238.944C283.847 239.275 284.322 239.44 284.93 239.44C285.997 239.44 286.53 239.077 286.53 238.352C286.53 238.075 286.413 237.845 286.178 237.664C285.954 237.483 285.591 237.28 285.09 237.056L284.258 236.704C283.575 236.405 283.063 236.08 282.722 235.728C282.381 235.376 282.21 234.949 282.21 234.448C282.21 233.776 282.487 233.253 283.042 232.88C283.607 232.507 284.343 232.32 285.25 232.32C286.498 232.32 287.357 232.539 287.826 232.976C287.997 233.136 288.103 233.36 288.146 233.648C288.189 233.936 288.21 234.347 288.21 234.88H287.65C287.554 234.325 287.335 233.883 286.994 233.552C286.653 233.211 286.178 233.04 285.57 233.04C285.111 233.04 284.77 233.141 284.546 233.344C284.322 233.536 284.21 233.797 284.21 234.128C284.21 234.395 284.301 234.619 284.482 234.8C284.674 234.971 284.962 235.141 285.346 235.312L286.306 235.712C287.095 236.043 287.661 236.379 288.002 236.72C288.354 237.051 288.53 237.488 288.53 238.032C288.53 238.715 288.226 239.243 287.618 239.616C287.021 239.979 286.231 240.16 285.25 240.16ZM293.486 240.16C292.665 240.16 291.966 239.984 291.39 239.632C290.814 239.28 290.377 238.811 290.078 238.224C289.79 237.627 289.646 236.965 289.646 236.24C289.646 235.515 289.79 234.859 290.078 234.272C290.377 233.675 290.814 233.2 291.39 232.848C291.966 232.496 292.665 232.32 293.486 232.32C294.766 232.32 295.593 232.507 295.966 232.88C296.148 233.061 296.26 233.301 296.302 233.6C296.345 233.899 296.366 234.405 296.366 235.12H295.886C295.844 234.448 295.636 233.936 295.262 233.584C294.889 233.221 294.377 233.04 293.726 233.04C293.14 233.04 292.67 233.312 292.318 233.856C291.977 234.389 291.806 235.184 291.806 236.24C291.806 238.373 292.473 239.44 293.806 239.44C294.318 239.44 294.745 239.328 295.086 239.104C295.438 238.869 295.774 238.539 296.094 238.112L296.59 238.48C296.281 238.96 295.892 239.36 295.422 239.68C294.953 240 294.308 240.16 293.486 240.16Z" fill="#FFD37E"/>
<path d="M325.744 240.32C324.741 240.32 323.856 240.075 323.088 239.584C322.331 239.093 321.744 238.421 321.328 237.568C320.912 236.715 320.704 235.765 320.704 234.72C320.704 233.675 320.912 232.725 321.328 231.872C321.744 231.019 322.331 230.347 323.088 229.856C323.856 229.365 324.741 229.12 325.744 229.12C326.747 229.12 327.627 229.365 328.384 229.856C329.152 230.347 329.744 231.019 330.16 231.872C330.576 232.725 330.784 233.675 330.784 234.72C330.784 235.765 330.576 236.715 330.16 237.568C329.744 238.421 329.152 239.093 328.384 239.584C327.627 240.075 326.747 240.32 325.744 240.32ZM325.744 239.664C326.768 239.664 327.568 239.227 328.144 238.352C328.731 237.467 329.024 236.256 329.024 234.72C329.024 233.184 328.731 231.979 328.144 231.104C327.568 230.219 326.768 229.776 325.744 229.776C324.72 229.776 323.915 230.219 323.328 231.104C322.752 231.979 322.464 233.184 322.464 234.72C322.464 236.256 322.752 237.467 323.328 238.352C323.915 239.227 324.72 239.664 325.744 239.664ZM334.621 233.136H333.901C333.41 233.136 333.015 233.275 332.717 233.552C332.418 233.829 332.269 234.235 332.269 234.768H331.901V233.76C331.901 232.907 332.301 232.48 333.101 232.48H338.813V233.136H336.221V240H334.621V233.136ZM349.256 240.336C348.253 240.336 347.533 240.101 347.096 239.632C346.669 239.152 346.456 238.448 346.456 237.52V234.24L343.912 240H343.544L340.792 234.08V240H340.12V232.48H341.752L344.136 237.632L346.456 232.432H348.072V237.52C348.072 238.213 348.178 238.8 348.392 239.28C348.605 239.749 348.893 239.989 349.256 240V240.336ZM353.597 240.16C352.871 240.16 352.247 239.989 351.725 239.648C351.213 239.296 350.823 238.827 350.557 238.24C350.29 237.643 350.157 236.976 350.157 236.24C350.157 235.483 350.29 234.811 350.557 234.224C350.834 233.627 351.218 233.163 351.709 232.832C352.21 232.491 352.786 232.32 353.437 232.32C354.493 232.32 355.303 232.619 355.869 233.216C356.434 233.813 356.717 234.661 356.717 235.76L356.685 236.496H351.837C351.837 237.424 352.018 238.16 352.381 238.704C352.754 239.237 353.261 239.504 353.901 239.504C354.402 239.504 354.829 239.397 355.181 239.184C355.533 238.96 355.858 238.635 356.157 238.208L356.509 238.48C356.178 239.035 355.773 239.456 355.293 239.744C354.823 240.021 354.258 240.16 353.597 240.16ZM355.037 235.824C355.037 233.925 354.503 232.976 353.437 232.976C352.978 232.976 352.594 233.237 352.285 233.76C351.986 234.272 351.837 234.96 351.837 235.824H355.037ZM358.703 234.448C358.703 233.904 358.629 233.504 358.479 233.248C358.33 232.981 358.031 232.848 357.583 232.848H357.359V232.48H358.879C359.263 232.48 359.557 232.533 359.759 232.64C359.962 232.747 360.106 232.939 360.191 233.216C360.277 233.493 360.319 233.904 360.319 234.448V235.904H363.343V232.48H364.959V238.032C364.959 238.576 365.034 238.981 365.183 239.248C365.333 239.504 365.631 239.632 366.079 239.632H366.287V240H364.783C364.399 240 364.106 239.947 363.903 239.84C363.701 239.733 363.557 239.541 363.471 239.264C363.386 238.987 363.343 238.576 363.343 238.032V236.56H360.319V240H358.703V234.448ZM369.321 240.16C368.67 240.16 368.099 239.979 367.609 239.616C367.129 239.243 366.889 238.683 366.889 237.936C366.889 237.136 367.251 236.56 367.977 236.208C368.702 235.845 369.721 235.664 371.033 235.664H371.449C371.449 234.651 371.31 233.952 371.033 233.568C370.755 233.173 370.35 232.976 369.817 232.976C369.358 232.976 368.985 233.083 368.697 233.296C368.419 233.499 368.222 233.856 368.105 234.368H367.337C367.337 234.005 367.358 233.712 367.401 233.488C367.443 233.264 367.555 233.061 367.737 232.88C367.929 232.688 368.238 232.549 368.664 232.464C369.102 232.368 369.593 232.32 370.137 232.32C371.054 232.32 371.769 232.565 372.281 233.056C372.803 233.547 373.065 234.421 373.065 235.68V240H372.121L371.561 239.28H371.481C371.289 239.525 371.011 239.733 370.649 239.904C370.286 240.075 369.843 240.16 369.321 240.16ZM369.977 239.424C370.595 239.424 371.086 239.093 371.449 238.432V236.32H371.033C370.243 236.32 369.635 236.464 369.209 236.752C368.793 237.029 368.585 237.424 368.585 237.936C368.585 238.416 368.713 238.784 368.969 239.04C369.235 239.296 369.571 239.424 369.977 239.424Z" fill="#E2CBA6"/>
<g filter="url(#filter6_d)">
<path d="M102.48 152.32C101.52 152.32 100.704 152.144 100.032 151.792C99.3707 151.44 98.7947 150.896 98.304 150.16L98.784 149.76C99.2107 150.325 99.68 150.773 100.192 151.104C100.715 151.435 101.344 151.6 102.08 151.6C102.795 151.6 103.381 151.403 103.84 151.008C104.309 150.613 104.544 150.064 104.544 149.36C104.544 148.603 104.299 148.016 103.808 147.6C103.328 147.173 102.667 146.96 101.824 146.96H100.464V146.24H101.824C102.219 146.24 102.597 146.155 102.96 145.984C103.333 145.813 103.637 145.563 103.872 145.232C104.107 144.891 104.224 144.48 104.224 144C104.224 143.52 104.117 143.12 103.904 142.8C103.691 142.469 103.424 142.229 103.104 142.08C102.795 141.92 102.48 141.84 102.16 141.84C101.445 141.84 100.837 142.075 100.336 142.544C99.8347 143.013 99.4827 143.659 99.28 144.48H98.784C98.784 143.872 98.8053 143.403 98.848 143.072C98.8907 142.741 99.0027 142.464 99.184 142.24C99.4507 141.909 99.8773 141.643 100.464 141.44C101.061 141.227 101.653 141.12 102.24 141.12C103.435 141.12 104.421 141.317 105.2 141.712C105.989 142.107 106.384 142.843 106.384 143.92C106.384 144.464 106.165 144.981 105.728 145.472C105.291 145.963 104.688 146.299 103.92 146.48C104.891 146.597 105.611 146.923 106.08 147.456C106.549 147.989 106.784 148.597 106.784 149.28C106.784 150.005 106.571 150.597 106.144 151.056C105.717 151.504 105.173 151.824 104.512 152.016C103.861 152.219 103.184 152.32 102.48 152.32ZM110.465 152.16C109.601 152.16 108.929 151.968 108.449 151.584C107.98 151.189 107.745 150.661 107.745 150C107.745 149.467 107.868 149.024 108.113 148.672C108.369 148.32 108.812 148.053 109.441 147.872C110.071 147.691 110.945 147.6 112.065 147.6H112.305C112.305 146.672 112.177 146.016 111.921 145.632C111.665 145.237 111.287 145.04 110.785 145.04C110.369 145.04 110.028 145.141 109.761 145.344C109.495 145.547 109.303 145.925 109.185 146.48H108.305C108.305 146.117 108.327 145.808 108.369 145.552C108.423 145.296 108.535 145.072 108.705 144.88C109.036 144.507 109.836 144.32 111.105 144.32C112.172 144.32 112.983 144.603 113.537 145.168C114.103 145.723 114.385 146.56 114.385 147.68V152H113.025L112.465 151.28H112.385C112.225 151.525 111.975 151.733 111.633 151.904C111.303 152.075 110.913 152.16 110.465 152.16ZM110.945 151.36C111.265 151.36 111.543 151.253 111.777 151.04C112.023 150.827 112.199 150.587 112.305 150.32V148.32H112.065C111.308 148.32 110.759 148.459 110.417 148.736C110.076 149.003 109.905 149.424 109.905 150C109.905 150.437 109.996 150.773 110.177 151.008C110.359 151.243 110.615 151.36 110.945 151.36ZM126.723 154.56C126.669 153.877 126.568 153.349 126.419 152.976C126.269 152.613 126.072 152.357 125.827 152.208C125.592 152.069 125.293 152 124.931 152H116.483V146.56C116.483 146.016 116.408 145.616 116.259 145.36C116.109 145.093 115.811 144.96 115.363 144.96H115.203V144.48H117.123C117.507 144.48 117.8 144.544 118.003 144.672C118.205 144.8 118.349 145.013 118.435 145.312C118.52 145.6 118.563 146.016 118.563 146.56V151.28H120.403V144.48H122.483V151.28H124.323V144.48H126.403V151.28H126.883C127.043 151.28 127.176 151.333 127.283 151.44C127.389 151.547 127.443 151.68 127.443 151.84V154.56H126.723ZM128.842 146.56C128.842 146.016 128.767 145.616 128.618 145.36C128.469 145.093 128.17 144.96 127.722 144.96H127.562V144.48H129.482C129.866 144.48 130.159 144.544 130.362 144.672C130.565 144.8 130.709 145.013 130.794 145.312C130.879 145.6 130.922 146.016 130.922 146.56V150L133.802 144.48H135.722V152H133.642V146.48L130.762 152H128.842V146.56ZM139.52 145.2H139.039C138.538 145.2 138.16 145.333 137.904 145.6C137.648 145.867 137.52 146.293 137.52 146.88H137.04V145.76C137.04 144.907 137.44 144.48 138.24 144.48H144.016V145.2H141.6V152H139.52V145.2ZM147.34 152.16C146.476 152.16 145.804 151.968 145.324 151.584C144.855 151.189 144.62 150.661 144.62 150C144.62 149.467 144.743 149.024 144.988 148.672C145.244 148.32 145.687 148.053 146.316 147.872C146.946 147.691 147.82 147.6 148.94 147.6H149.18C149.18 146.672 149.052 146.016 148.796 145.632C148.54 145.237 148.162 145.04 147.66 145.04C147.244 145.04 146.903 145.141 146.636 145.344C146.37 145.547 146.178 145.925 146.06 146.48H145.18C145.18 146.117 145.202 145.808 145.244 145.552C145.298 145.296 145.41 145.072 145.58 144.88C145.911 144.507 146.711 144.32 147.98 144.32C149.047 144.32 149.858 144.603 150.412 145.168C150.978 145.723 151.26 146.56 151.26 147.68V152H149.9L149.34 151.28H149.26C149.1 151.525 148.85 151.733 148.508 151.904C148.178 152.075 147.788 152.16 147.34 152.16ZM147.82 151.36C148.14 151.36 148.418 151.253 148.652 151.04C148.898 150.827 149.074 150.587 149.18 150.32V148.32H148.94C148.183 148.32 147.634 148.459 147.292 148.736C146.951 149.003 146.78 149.424 146.78 150C146.78 150.437 146.871 150.773 147.052 151.008C147.234 151.243 147.49 151.36 147.82 151.36Z" fill="#423D34"/>
</g>
<defs>
<filter id="filter0_d" x="0" y="0" width="429" height="267" filterUnits="userSpaceOnUse" color-interpolation-filters="sRGB">
<feFlood flood-opacity="0" result="BackgroundImageFix"/>
<feColorMatrix in="SourceAlpha" type="matrix" values="0 0 0 0 0 0 0 0 0 0 0 0 0 0 0 0 0 0 127 0"/>
<feOffset dy="4"/>
<feGaussianBlur stdDeviation="2"/>
<feColorMatrix type="matrix" values="0 0 0 0 0 0 0 0 0 0 0 0 0 0 0 0 0 0 0.25 0"/>
<feBlend mode="normal" in2="BackgroundImageFix" result="effect1_dropShadow"/>
<feBlend mode="normal" in="SourceGraphic" in2="effect1_dropShadow" result="shape"/>
</filter>
<filter id="filter1_d" x="128.32" y="102.6" width="41.4097" height="35.2" filterUnits="userSpaceOnUse" color-interpolation-filters="sRGB">
<feFlood flood-opacity="0" result="BackgroundImageFix"/>
<feColorMatrix in="SourceAlpha" type="matrix" values="0 0 0 0 0 0 0 0 0 0 0 0 0 0 0 0 0 0 127 0"/>
<feOffset dy="4"/>
<feGaussianBlur stdDeviation="2"/>
<feColorMatrix type="matrix" values="0 0 0 0 0 0 0 0 0 0 0 0 0 0 0 0 0 0 0.25 0"/>
<feBlend mode="normal" in2="BackgroundImageFix" result="effect1_dropShadow"/>
<feBlend mode="normal" in="SourceGraphic" in2="effect1_dropShadow" result="shape"/>
</filter>
<filter id="filter2_d" x="91" y="99" width="37" height="42" filterUnits="userSpaceOnUse" color-interpolation-filters="sRGB">
<feFlood flood-opacity="0" result="BackgroundImageFix"/>
<feColorMatrix in="SourceAlpha" type="matrix" values="0 0 0 0 0 0 0 0 0 0 0 0 0 0 0 0 0 0 127 0"/>
<feOffset dy="4"/>
<feGaussianBlur stdDeviation="2"/>
<feColorMatrix type="matrix" values="0 0 0 0 0 0 0 0 0 0 0 0 0 0 0 0 0 0 0.25 0"/>
<feBlend mode="normal" in2="BackgroundImageFix" result="effect1_dropShadow"/>
<feBlend mode="normal" in="SourceGraphic" in2="effect1_dropShadow" result="shape"/>
</filter>
<filter id="filter3_i" x="15" y="94" width="65" height="65" filterUnits="userSpaceOnUse" color-interpolation-filters="sRGB">
<feFlood flood-opacity="0" result="BackgroundImageFix"/>
<feBlend mode="normal" in="SourceGraphic" in2="BackgroundImageFix" result="shape"/>
<feColorMatrix in="SourceAlpha" type="matrix" values="0 0 0 0 0 0 0 0 0 0 0 0 0 0 0 0 0 0 127 0" result="hardAlpha"/>
<feOffset/>
<feGaussianBlur stdDeviation="7.5"/>
<feComposite in2="hardAlpha" operator="arithmetic" k2="-1" k3="1"/>
<feColorMatrix type="matrix" values="0 0 0 0 0 0 0 0 0 0 0 0 0 0 0 0 0 0 1 0"/>
<feBlend mode="normal" in2="shape" result="effect1_innerShadow"/>
</filter>
<filter id="filter4_d" x="20.8877" y="16.32" width="177.174" height="22.52" filterUnits="userSpaceOnUse" color-interpolation-filters="sRGB">
<feFlood flood-opacity="0" result="BackgroundImageFix"/>
<feColorMatrix in="SourceAlpha" type="matrix" values="0 0 0 0 0 0 0 0 0 0 0 0 0 0 0 0 0 0 127 0"/>
<feOffset dx="2" dy="2"/>
<feColorMatrix type="matrix" values="0 0 0 0 0 0 0 0 0 0 0 0 0 0 0 0 0 0 0.25 0"/>
<feBlend mode="normal" in2="BackgroundImageFix" result="effect1_dropShadow"/>
<feBlend mode="normal" in="SourceGraphic" in2="effect1_dropShadow" result="shape"/>
</filter>
<filter id="filter5_d" x="20.2402" y="42.44" width="33.6505" height="15.52" filterUnits="userSpaceOnUse" color-interpolation-filters="sRGB">
<feFlood flood-opacity="0" result="BackgroundImageFix"/>
<feColorMatrix in="SourceAlpha" type="matrix" values="0 0 0 0 0 0 0 0 0 0 0 0 0 0 0 0 0 0 127 0"/>
<feOffset dx="2" dy="2"/>
<feColorMatrix type="matrix" values="0 0 0 0 0 0 0 0 0 0 0 0 0 0 0 0 0 0 0.25 0"/>
<feBlend mode="normal" in2="BackgroundImageFix" result="effect1_dropShadow"/>
<feBlend mode="normal" in="SourceGraphic" in2="effect1_dropShadow" result="shape"/>
</filter>
<filter id="filter6_d" x="98.3037" y="141.12" width="54.9562" height="15.44" filterUnits="userSpaceOnUse" color-interpolation-filters="sRGB">
<feFlood flood-opacity="0" result="BackgroundImageFix"/>
<feColorMatrix in="SourceAlpha" type="matrix" values="0 0 0 0 0 0 0 0 0 0 0 0 0 0 0 0 0 0 127 0"/>
<feOffset dx="2" dy="2"/>
<feColorMatrix type="matrix" values="0 0 0 0 0 0 0 0 0 0 0 0 0 0 0 0 0 0 0.25 0"/>
<feBlend mode="normal" in2="BackgroundImageFix" result="effect1_dropShadow"/>
<feBlend mode="normal" in="SourceGraphic" in2="effect1_dropShadow" result="shape"/>
</filter>
<linearGradient id="paint0_linear" x1="307.12" y1="-100.86" x2="262.224" y2="87.3822" gradientUnits="userSpaceOnUse">
<stop offset="0.141155" stop-color="#64C337"/>
<stop offset="1" stop-color="#001023" stop-opacity="0"/>
</linearGradient>
<linearGradient id="paint1_linear" x1="166" y1="105.475" x2="166" y2="136" gradientUnits="userSpaceOnUse">
<stop stop-color="#C09645"/>
<stop offset="0.5" stop-color="#FFC977"/>
<stop offset="1" stop-color="#C09645"/>
</linearGradient>
<linearGradient id="paint2_linear" x1="109.5" y1="101.55" x2="109.5" y2="133" gradientUnits="userSpaceOnUse">
<stop stop-color="#C09645"/>
<stop offset="0.5" stop-color="#FFC977"/>
<stop offset="1" stop-color="#C09645"/>
</linearGradient>
<linearGradient id="paint3_linear" x1="47.5005" y1="94" x2="47.5005" y2="159" gradientUnits="userSpaceOnUse">
<stop stop-color="#31323C"/>
<stop offset="0.520833" stop-color="#4B4D5A"/>
<stop offset="1" stop-color="#31323C"/>
</linearGradient>
<clipPath id="clip0">
<rect width="65" height="65" fill="white" transform="translate(15 94)"/>
</clipPath>
</defs>
</svg>
