<svg width="429" height="267" viewBox="0 0 429 267" fill="none" xmlns="http://www.w3.org/2000/svg">
<g filter="url(#filter0_d)">
<rect x="4" width="421" height="259" rx="9" fill="#1C1E22"/>
<rect x="4.5" y="0.5" width="420" height="258" rx="8.5" stroke="#FF7A00"/>
</g>
<path opacity="0.1" fill-rule="evenodd" clip-rule="evenodd" d="M213 197L213 88L214 88L214 197L213 197Z" fill="url(#paint0_linear)"/>
<path fill-rule="evenodd" clip-rule="evenodd" d="M218.912 214H425V213H218.912L214.247 209L209.583 213H4V214H209.583L214.247 218L218.912 214Z" fill="#FF7A00"/>
<path d="M4 8C4 3.58172 7.58172 0 12 0H417C421.418 0 425 3.58172 425 8V75H4V8Z" fill="url(#paint1_linear)"/>
<path fill-rule="evenodd" clip-rule="evenodd" d="M218.912 76H425V75H218.912L214.247 71L209.583 75H4V76H209.583L214.247 80L218.912 76Z" fill="#FF7A00"/>
<path d="M308.91 44.24C308.558 44.24 308.238 44.192 307.95 44.096V43.6C308.473 43.4933 308.915 43.2107 309.278 42.752C309.641 42.2933 309.929 41.4933 310.142 40.352C310.366 39.2 310.478 37.5893 310.478 35.52C310.478 34.976 310.403 34.576 310.254 34.32C310.105 34.0533 309.806 33.92 309.358 33.92H309.198V33.44H317.758V44H315.678V34.16H312.222V35.52C312.222 38.72 311.929 40.976 311.342 42.288C310.766 43.5893 309.955 44.24 308.91 44.24ZM323.131 44.16C322.395 44.16 321.75 43.9893 321.195 43.648C320.641 43.3067 320.209 42.8427 319.899 42.256C319.601 41.6587 319.451 40.9867 319.451 40.24C319.451 39.408 319.601 38.6987 319.899 38.112C320.209 37.5253 320.63 37.0827 321.163 36.784C321.697 36.4747 322.299 36.32 322.971 36.32C323.633 36.32 324.23 36.4533 324.763 36.72C325.297 36.9867 325.718 37.3653 326.027 37.856C326.337 38.336 326.491 38.8907 326.491 39.52L326.427 40.528H321.611C321.611 41.5413 321.766 42.2827 322.075 42.752C322.385 43.2107 322.817 43.44 323.371 43.44C323.883 43.44 324.31 43.328 324.651 43.104C325.003 42.8693 325.339 42.5387 325.659 42.112L326.155 42.48C325.846 42.96 325.457 43.36 324.987 43.68C324.529 44 323.91 44.16 323.131 44.16ZM324.331 39.808C324.331 38.8053 324.214 38.096 323.979 37.68C323.745 37.2533 323.409 37.04 322.971 37.04C322.566 37.04 322.235 37.2587 321.979 37.696C321.734 38.1227 321.611 38.8267 321.611 39.808H324.331ZM328.184 38.56C328.184 38.016 328.109 37.616 327.96 37.36C327.811 37.0933 327.512 36.96 327.064 36.96H326.984V36.48H332.504C333.304 36.48 333.704 36.9067 333.704 37.76V38.88H333.224C333.224 38.2933 333.096 37.8667 332.84 37.6C332.584 37.3333 332.205 37.2 331.704 37.2H330.264V44H328.184V38.56ZM338.319 44.16C337.583 44.16 336.938 43.9893 336.383 43.648C335.828 43.3067 335.396 42.8427 335.087 42.256C334.788 41.6587 334.639 40.9867 334.639 40.24C334.639 39.408 334.788 38.6987 335.087 38.112C335.396 37.5253 335.818 37.0827 336.351 36.784C336.884 36.4747 337.487 36.32 338.159 36.32C338.82 36.32 339.418 36.4533 339.951 36.72C340.484 36.9867 340.906 37.3653 341.215 37.856C341.524 38.336 341.679 38.8907 341.679 39.52L341.615 40.528H336.799C336.799 41.5413 336.954 42.2827 337.263 42.752C337.572 43.2107 338.004 43.44 338.559 43.44C339.071 43.44 339.498 43.328 339.839 43.104C340.191 42.8693 340.527 42.5387 340.847 42.112L341.343 42.48C341.034 42.96 340.644 43.36 340.175 43.68C339.716 44 339.098 44.16 338.319 44.16ZM339.519 39.808C339.519 38.8053 339.402 38.096 339.167 37.68C338.932 37.2533 338.596 37.04 338.159 37.04C337.754 37.04 337.423 37.2587 337.167 37.696C336.922 38.1227 336.799 38.8267 336.799 39.808H339.519ZM343.452 38.56C343.452 38.016 343.377 37.616 343.228 37.36C343.078 37.0933 342.78 36.96 342.332 36.96H342.171V36.48H344.092C344.476 36.48 344.769 36.544 344.972 36.672C345.174 36.8 345.318 37.0133 345.404 37.312C345.489 37.6 345.532 38.016 345.532 38.56V39.84H348.092V36.48H350.172V41.92C350.172 42.464 350.246 42.8693 350.396 43.136C350.545 43.392 350.844 43.52 351.292 43.52H351.452V44H349.532C349.148 44 348.854 43.9413 348.652 43.824C348.449 43.696 348.305 43.488 348.22 43.2C348.134 42.9013 348.092 42.4747 348.092 41.92V40.56H345.532V44H343.452V38.56ZM351.582 43.84C351.582 43.68 351.635 43.5467 351.742 43.44C351.848 43.3333 351.982 43.28 352.142 43.28H352.718C353.059 42.5333 353.304 41.7387 353.454 40.896C353.603 40.0427 353.678 39.2107 353.678 38.4C353.678 37.9307 353.598 37.5733 353.438 37.328C353.278 37.0827 352.958 36.96 352.478 36.96V36.48H359.598V43.28H360.078C360.238 43.28 360.371 43.3333 360.477 43.44C360.584 43.5467 360.638 43.68 360.638 43.84V46.56H359.838C359.784 45.8773 359.683 45.3493 359.534 44.976C359.384 44.6133 359.187 44.3573 358.942 44.208C358.707 44.0693 358.408 44 358.046 44H354.174C353.811 44 353.507 44.0693 353.262 44.208C353.027 44.3573 352.835 44.6133 352.686 44.976C352.536 45.3493 352.435 45.8773 352.382 46.56H351.582V43.84ZM357.518 43.28V37.2H355.262C355.262 38.576 355.192 39.7387 355.054 40.688C354.926 41.6267 354.702 42.4907 354.382 43.28H357.518ZM363.95 44.16C363.086 44.16 362.414 43.968 361.934 43.584C361.464 43.1893 361.23 42.6613 361.23 42C361.23 41.4667 361.352 41.024 361.598 40.672C361.854 40.32 362.296 40.0533 362.926 39.872C363.555 39.6907 364.43 39.6 365.55 39.6H365.79C365.79 38.672 365.662 38.016 365.406 37.632C365.15 37.2373 364.771 37.04 364.27 37.04C363.854 37.04 363.512 37.1413 363.246 37.344C362.979 37.5467 362.787 37.9253 362.67 38.48H361.79C361.79 38.1173 361.811 37.808 361.854 37.552C361.907 37.296 362.019 37.072 362.19 36.88C362.52 36.5067 363.32 36.32 364.59 36.32C365.656 36.32 366.467 36.6027 367.022 37.168C367.587 37.7227 367.87 38.56 367.87 39.68V44H366.51L365.95 43.28H365.87C365.71 43.5253 365.459 43.7333 365.118 43.904C364.787 44.0747 364.398 44.16 363.95 44.16ZM364.43 43.36C364.75 43.36 365.027 43.2533 365.262 43.04C365.507 42.8267 365.683 42.5867 365.79 42.32V40.32H365.55C364.792 40.32 364.243 40.4587 363.902 40.736C363.56 41.0027 363.39 41.424 363.39 42C363.39 42.4373 363.48 42.7733 363.662 43.008C363.843 43.2427 364.099 43.36 364.43 43.36ZM369.983 38.56C369.983 38.016 369.908 37.616 369.759 37.36C369.62 37.0933 369.327 36.96 368.879 36.96H368.719V36.48H370.303C370.676 36.48 370.964 36.5333 371.167 36.64C371.37 36.736 371.53 36.9067 371.647 37.152C372.276 36.5973 373.002 36.32 373.823 36.32C374.9 36.32 375.727 36.688 376.303 37.424C376.89 38.1493 377.183 39.088 377.183 40.24C377.183 41.392 376.884 42.336 376.287 43.072C375.7 43.7973 374.852 44.16 373.743 44.16C373.412 44.16 373.092 44.112 372.783 44.016C372.474 43.92 372.234 43.808 372.063 43.68V47.04H369.983V38.56ZM373.423 43.44C374.49 43.44 375.023 42.3733 375.023 40.24C375.023 39.2587 374.9 38.48 374.655 37.904C374.41 37.328 374.026 37.04 373.503 37.04C372.948 37.04 372.468 37.2213 372.063 37.584V42.96C372.202 43.088 372.399 43.2 372.655 43.296C372.911 43.392 373.167 43.44 373.423 43.44ZM379.045 38.56C379.045 38.016 378.971 37.616 378.821 37.36C378.672 37.0933 378.373 36.96 377.925 36.96H377.765V36.48H379.685C380.069 36.48 380.363 36.544 380.565 36.672C380.768 36.8 380.912 37.0133 380.997 37.312C381.083 37.6 381.125 38.016 381.125 38.56V39.84H383.685V36.48H385.765V41.92C385.765 42.464 385.84 42.8693 385.989 43.136C386.139 43.392 386.437 43.52 386.885 43.52H387.045V44H385.125C384.741 44 384.448 43.9413 384.245 43.824C384.043 43.696 383.899 43.488 383.813 43.2C383.728 42.9013 383.685 42.4747 383.685 41.92V40.56H381.125V44H379.045V38.56ZM391.447 44.16C390.669 44.16 389.986 43.9893 389.399 43.648C388.823 43.296 388.381 42.8267 388.071 42.24C387.762 41.6427 387.607 40.976 387.607 40.24C387.607 39.504 387.762 38.8427 388.071 38.256C388.381 37.6587 388.823 37.1893 389.399 36.848C389.986 36.496 390.669 36.32 391.447 36.32C392.226 36.32 392.903 36.496 393.479 36.848C394.066 37.1893 394.514 37.6587 394.823 38.256C395.133 38.8427 395.287 39.504 395.287 40.24C395.287 40.976 395.133 41.6427 394.823 42.24C394.514 42.8267 394.066 43.296 393.479 43.648C392.903 43.9893 392.226 44.16 391.447 44.16ZM391.447 43.44C391.991 43.44 392.407 43.1467 392.695 42.56C392.983 41.9733 393.127 41.2 393.127 40.24C393.127 39.28 392.983 38.5067 392.695 37.92C392.407 37.3333 391.991 37.04 391.447 37.04C390.903 37.04 390.487 37.3333 390.199 37.92C389.911 38.5067 389.767 39.28 389.767 40.24C389.767 41.2 389.911 41.9733 390.199 42.56C390.487 43.1467 390.903 43.44 391.447 43.44ZM400.131 44.16C399.395 44.16 398.75 43.9893 398.195 43.648C397.641 43.3067 397.209 42.8427 396.899 42.256C396.601 41.6587 396.451 40.9867 396.451 40.24C396.451 39.408 396.601 38.6987 396.899 38.112C397.209 37.5253 397.63 37.0827 398.163 36.784C398.697 36.4747 399.299 36.32 399.971 36.32C400.633 36.32 401.23 36.4533 401.763 36.72C402.297 36.9867 402.718 37.3653 403.027 37.856C403.337 38.336 403.491 38.8907 403.491 39.52L403.427 40.528H398.611C398.611 41.5413 398.766 42.2827 399.075 42.752C399.385 43.2107 399.817 43.44 400.371 43.44C400.883 43.44 401.31 43.328 401.651 43.104C402.003 42.8693 402.339 42.5387 402.659 42.112L403.155 42.48C402.846 42.96 402.457 43.36 401.987 43.68C401.529 44 400.91 44.16 400.131 44.16ZM401.331 39.808C401.331 38.8053 401.214 38.096 400.979 37.68C400.745 37.2533 400.409 37.04 399.971 37.04C399.566 37.04 399.235 37.2587 398.979 37.696C398.734 38.1227 398.611 38.8267 398.611 39.808H401.331Z" fill="#FF7A00"/>
<defs>
<filter id="filter0_d" x="0" y="0" width="429" height="267" filterUnits="userSpaceOnUse" color-interpolation-filters="sRGB">
<feFlood flood-opacity="0" result="BackgroundImageFix"/>
<feColorMatrix in="SourceAlpha" type="matrix" values="0 0 0 0 0 0 0 0 0 0 0 0 0 0 0 0 0 0 127 0"/>
<feOffset dy="4"/>
<feGaussianBlur stdDeviation="2"/>
<feColorMatrix type="matrix" values="0 0 0 0 0 0 0 0 0 0 0 0 0 0 0 0 0 0 0.25 0"/>
<feBlend mode="normal" in2="BackgroundImageFix" result="effect1_dropShadow"/>
<feBlend mode="normal" in="SourceGraphic" in2="effect1_dropShadow" result="shape"/>
</filter>
<linearGradient id="paint0_linear" x1="213.5" y1="197" x2="213.5" y2="88" gradientUnits="userSpaceOnUse">
<stop stop-color="#7E8290" stop-opacity="0"/>
<stop offset="0.505208" stop-color="#7E8291" stop-opacity="0.90625"/>
<stop offset="1" stop-color="#7E8291" stop-opacity="0"/>
</linearGradient>
<linearGradient id="paint1_linear" x1="307.12" y1="-99.5327" x2="263.336" y2="86.4942" gradientUnits="userSpaceOnUse">
<stop offset="0.141155" stop-color="#FF7A00"/>
<stop offset="1" stop-color="#B45600" stop-opacity="0"/>
</linearGradient>
</defs>
</svg>
