<svg width="429" height="267" viewBox="0 0 429 267" fill="none" xmlns="http://www.w3.org/2000/svg">
<g filter="url(#filter0_d)">
<rect x="4" width="421" height="259" rx="9" fill="#1C1E22"/>
<rect x="4.5" y="0.5" width="420" height="258" rx="8.5" stroke="#0094FF"/>
</g>
<path opacity="0.1" fill-rule="evenodd" clip-rule="evenodd" d="M214 197L214 88L215 88L215 197L214 197Z" fill="url(#paint0_linear)"/>
<path fill-rule="evenodd" clip-rule="evenodd" d="M218.912 214H425V213H218.912L214.247 209L209.583 213H4V214H209.583L214.247 218L218.912 214Z" fill="#0094FF"/>
<path fill-rule="evenodd" clip-rule="evenodd" d="M218.912 76H425V75H218.912L214.247 71L209.583 75H4V76H209.583L214.247 80L218.912 76Z" fill="#0094FF"/>
<path d="M4 8C4 3.58172 7.58172 0 12 0H417C421.418 0 425 3.58172 425 8V75H4V8Z" fill="url(#paint1_linear)"/>
<path d="M354.411 35.52C354.411 34.976 354.336 34.576 354.187 34.32C354.037 34.0533 353.739 33.92 353.291 33.92H353.131V33.44H357.531C358.629 33.44 359.621 33.6587 360.507 34.096C361.403 34.5227 361.851 35.376 361.851 36.656C361.851 37.488 361.616 38.1333 361.147 38.592C360.688 39.0507 360.171 39.3547 359.595 39.504C359.019 39.6533 358.491 39.728 358.011 39.728H356.491V44H354.411V35.52ZM357.451 39.088C358.08 39.088 358.597 38.896 359.003 38.512C359.408 38.128 359.611 37.4827 359.611 36.576C359.611 35.68 359.408 35.04 359.003 34.656C358.608 34.272 358.117 34.08 357.531 34.08C357.221 34.08 356.875 34.1173 356.491 34.192V39.088H357.451ZM366.21 44.16C365.474 44.16 364.828 43.9893 364.274 43.648C363.719 43.3067 363.287 42.8427 362.978 42.256C362.679 41.6587 362.53 40.9867 362.53 40.24C362.53 39.408 362.679 38.6987 362.978 38.112C363.287 37.5253 363.708 37.0827 364.242 36.784C364.775 36.4747 365.378 36.32 366.049 36.32C366.711 36.32 367.308 36.4533 367.842 36.72C368.375 36.9867 368.796 37.3653 369.106 37.856C369.415 38.336 369.57 38.8907 369.57 39.52L369.506 40.528H364.69C364.69 41.5413 364.844 42.2827 365.154 42.752C365.463 43.2107 365.895 43.44 366.45 43.44C366.962 43.44 367.388 43.328 367.73 43.104C368.082 42.8693 368.418 42.5387 368.738 42.112L369.234 42.48C368.924 42.96 368.535 43.36 368.066 43.68C367.607 44 366.988 44.16 366.21 44.16ZM367.41 39.808C367.41 38.8053 367.292 38.096 367.058 37.68C366.823 37.2533 366.487 37.04 366.049 37.04C365.644 37.04 365.314 37.2587 365.058 37.696C364.812 38.1227 364.69 38.8267 364.69 39.808H367.41ZM369.988 43.84C369.988 43.68 370.041 43.5467 370.148 43.44C370.254 43.3333 370.388 43.28 370.548 43.28H371.124C371.465 42.5333 371.71 41.7387 371.86 40.896C372.009 40.0427 372.084 39.2107 372.084 38.4C372.084 37.9307 372.004 37.5733 371.844 37.328C371.684 37.0827 371.364 36.96 370.884 36.96V36.48H378.004V43.28H378.484C378.644 43.28 378.777 43.3333 378.884 43.44C378.99 43.5467 379.044 43.68 379.044 43.84V46.56H378.244C378.19 45.8773 378.089 45.3493 377.94 44.976C377.79 44.6133 377.593 44.3573 377.348 44.208C377.113 44.0693 376.814 44 376.452 44H372.58C372.217 44 371.913 44.0693 371.668 44.208C371.433 44.3573 371.241 44.6133 371.092 44.976C370.942 45.3493 370.841 45.8773 370.788 46.56H369.988V43.84ZM375.924 43.28V37.2H373.668C373.668 38.576 373.598 39.7387 373.46 40.688C373.332 41.6267 373.108 42.4907 372.788 43.28H375.924ZM386.436 44.16C385.967 44.16 385.535 44.064 385.14 43.872C384.756 43.6693 384.393 43.3387 384.052 42.88L382.516 40.864V44H380.436V38.56C380.436 38.016 380.361 37.616 380.212 37.36C380.063 37.0933 379.764 36.96 379.316 36.96H379.156V36.48H381.076C381.46 36.48 381.753 36.544 381.956 36.672C382.159 36.8 382.303 37.0133 382.388 37.312C382.473 37.6 382.516 38.016 382.516 38.56V40.08L384.452 37.712C384.815 37.2747 385.156 36.96 385.476 36.768C385.796 36.576 386.223 36.48 386.756 36.48H387.076V36.896C386.756 36.896 386.468 36.96 386.212 37.088C385.956 37.216 385.711 37.4187 385.476 37.696L383.924 39.584L386.052 42.4C386.564 43.0933 387.06 43.4987 387.54 43.616V44C387.455 44.0427 387.3 44.08 387.076 44.112C386.852 44.144 386.639 44.16 386.436 44.16ZM391.447 44.16C390.669 44.16 389.986 43.9893 389.399 43.648C388.823 43.296 388.381 42.8267 388.071 42.24C387.762 41.6427 387.607 40.976 387.607 40.24C387.607 39.504 387.762 38.8427 388.071 38.256C388.381 37.6587 388.823 37.1893 389.399 36.848C389.986 36.496 390.669 36.32 391.447 36.32C392.226 36.32 392.903 36.496 393.479 36.848C394.066 37.1893 394.514 37.6587 394.823 38.256C395.133 38.8427 395.287 39.504 395.287 40.24C395.287 40.976 395.133 41.6427 394.823 42.24C394.514 42.8267 394.066 43.296 393.479 43.648C392.903 43.9893 392.226 44.16 391.447 44.16ZM391.447 43.44C391.991 43.44 392.407 43.1467 392.695 42.56C392.983 41.9733 393.127 41.2 393.127 40.24C393.127 39.28 392.983 38.5067 392.695 37.92C392.407 37.3333 391.991 37.04 391.447 37.04C390.903 37.04 390.487 37.3333 390.199 37.92C389.911 38.5067 389.767 39.28 389.767 40.24C389.767 41.2 389.911 41.9733 390.199 42.56C390.487 43.1467 390.903 43.44 391.447 43.44ZM400.131 44.16C399.395 44.16 398.75 43.9893 398.195 43.648C397.641 43.3067 397.209 42.8427 396.899 42.256C396.601 41.6587 396.451 40.9867 396.451 40.24C396.451 39.408 396.601 38.6987 396.899 38.112C397.209 37.5253 397.63 37.0827 398.163 36.784C398.697 36.4747 399.299 36.32 399.971 36.32C400.633 36.32 401.23 36.4533 401.763 36.72C402.297 36.9867 402.718 37.3653 403.027 37.856C403.337 38.336 403.491 38.8907 403.491 39.52L403.427 40.528H398.611C398.611 41.5413 398.766 42.2827 399.075 42.752C399.385 43.2107 399.817 43.44 400.371 43.44C400.883 43.44 401.31 43.328 401.651 43.104C402.003 42.8693 402.339 42.5387 402.659 42.112L403.155 42.48C402.846 42.96 402.457 43.36 401.987 43.68C401.529 44 400.91 44.16 400.131 44.16ZM401.331 39.808C401.331 38.8053 401.214 38.096 400.979 37.68C400.745 37.2533 400.409 37.04 399.971 37.04C399.566 37.04 399.235 37.2587 398.979 37.696C398.734 38.1227 398.611 38.8267 398.611 39.808H401.331Z" fill="#0094FF"/>
<defs>
<filter id="filter0_d" x="0" y="0" width="429" height="267" filterUnits="userSpaceOnUse" color-interpolation-filters="sRGB">
<feFlood flood-opacity="0" result="BackgroundImageFix"/>
<feColorMatrix in="SourceAlpha" type="matrix" values="0 0 0 0 0 0 0 0 0 0 0 0 0 0 0 0 0 0 127 0"/>
<feOffset dy="4"/>
<feGaussianBlur stdDeviation="2"/>
<feColorMatrix type="matrix" values="0 0 0 0 0 0 0 0 0 0 0 0 0 0 0 0 0 0 0.25 0"/>
<feBlend mode="normal" in2="BackgroundImageFix" result="effect1_dropShadow"/>
<feBlend mode="normal" in="SourceGraphic" in2="effect1_dropShadow" result="shape"/>
</filter>
<linearGradient id="paint0_linear" x1="214.5" y1="197" x2="214.5" y2="88" gradientUnits="userSpaceOnUse">
<stop stop-color="#7E8290" stop-opacity="0"/>
<stop offset="0.505208" stop-color="#7E8291" stop-opacity="0.90625"/>
<stop offset="1" stop-color="#7E8291" stop-opacity="0"/>
</linearGradient>
<linearGradient id="paint1_linear" x1="307.12" y1="-99.5327" x2="263.336" y2="86.4942" gradientUnits="userSpaceOnUse">
<stop offset="0.141155" stop-color="#0094FF"/>
<stop offset="1" stop-color="#00479A" stop-opacity="0"/>
</linearGradient>
</defs>
</svg>
