<svg width="429" height="267" viewBox="0 0 429 267" fill="none" xmlns="http://www.w3.org/2000/svg">
<g filter="url(#filter0_d)">
<rect x="4" width="421" height="259" rx="9" fill="#1C1E22"/>
<rect x="4.5" y="0.5" width="420" height="258" rx="8.5" stroke="#64C337"/>
</g>
<path opacity="0.1" fill-rule="evenodd" clip-rule="evenodd" d="M214 197L214 88L215 88L215 197L214 197Z" fill="url(#paint0_linear)"/>
<path fill-rule="evenodd" clip-rule="evenodd" d="M218.912 214H425V213H218.912L214.247 209L209.583 213H4V214H209.583L214.247 218L218.912 214Z" fill="#64C337"/>
<path d="M4 8C4 3.58172 7.58172 0 12 0H417C421.418 0 425 3.58172 425 8V76H4V8Z" fill="url(#paint1_linear)"/>
<path fill-rule="evenodd" clip-rule="evenodd" d="M218.912 76H425V75H218.912L214.247 71L209.583 75H4V76H209.583L214.247 80L218.912 76Z" fill="#64C337"/>
<path d="M321.567 35.52C321.567 34.976 321.492 34.576 321.343 34.32C321.194 34.0533 320.895 33.92 320.447 33.92H320.287V33.44H322.207C322.591 33.44 322.884 33.504 323.087 33.632C323.29 33.76 323.434 33.9733 323.519 34.272C323.604 34.56 323.647 34.976 323.647 35.52V38.16H327.967V33.44H330.047V41.92C330.047 42.464 330.122 42.8693 330.271 43.136C330.42 43.392 330.719 43.52 331.167 43.52H331.327V44H329.407C329.023 44 328.73 43.9413 328.527 43.824C328.324 43.696 328.18 43.488 328.095 43.2C328.01 42.9013 327.967 42.4747 327.967 41.92V38.88H323.647V44H321.567V35.52ZM335.694 44.16C334.958 44.16 334.313 43.9893 333.758 43.648C333.203 43.3067 332.771 42.8427 332.462 42.256C332.163 41.6587 332.014 40.9867 332.014 40.24C332.014 39.408 332.163 38.6987 332.462 38.112C332.771 37.5253 333.193 37.0827 333.726 36.784C334.259 36.4747 334.862 36.32 335.534 36.32C336.195 36.32 336.793 36.4533 337.326 36.72C337.859 36.9867 338.281 37.3653 338.59 37.856C338.899 38.336 339.054 38.8907 339.054 39.52L338.99 40.528H334.174C334.174 41.5413 334.329 42.2827 334.638 42.752C334.947 43.2107 335.379 43.44 335.934 43.44C336.446 43.44 336.873 43.328 337.214 43.104C337.566 42.8693 337.902 42.5387 338.222 42.112L338.718 42.48C338.409 42.96 338.019 43.36 337.55 43.68C337.091 44 336.473 44.16 335.694 44.16ZM336.894 39.808C336.894 38.8053 336.777 38.096 336.542 37.68C336.307 37.2533 335.971 37.04 335.534 37.04C335.129 37.04 334.798 37.2587 334.542 37.696C334.297 38.1227 334.174 38.8267 334.174 39.808H336.894ZM343.979 44.16C343.2 44.16 342.517 43.9893 341.931 43.648C341.355 43.296 340.912 42.8267 340.603 42.24C340.293 41.6427 340.139 40.976 340.139 40.24C340.139 39.504 340.293 38.8427 340.603 38.256C340.912 37.6587 341.355 37.1893 341.931 36.848C342.517 36.496 343.2 36.32 343.979 36.32C344.757 36.32 345.435 36.496 346.011 36.848C346.597 37.1893 347.045 37.6587 347.355 38.256C347.664 38.8427 347.819 39.504 347.819 40.24C347.819 40.976 347.664 41.6427 347.355 42.24C347.045 42.8267 346.597 43.296 346.011 43.648C345.435 43.9893 344.757 44.16 343.979 44.16ZM343.979 43.44C344.523 43.44 344.939 43.1467 345.227 42.56C345.515 41.9733 345.659 41.2 345.659 40.24C345.659 39.28 345.515 38.5067 345.227 37.92C344.939 37.3333 344.523 37.04 343.979 37.04C343.435 37.04 343.019 37.3333 342.731 37.92C342.443 38.5067 342.299 39.28 342.299 40.24C342.299 41.2 342.443 41.9733 342.731 42.56C343.019 43.1467 343.435 43.44 343.979 43.44ZM352.791 44.16C351.66 44.16 350.764 43.8133 350.103 43.12C349.441 42.416 349.111 41.4293 349.111 40.16V39.68C349.111 38.3787 349.223 37.3493 349.447 36.592C349.681 35.824 349.996 35.2693 350.391 34.928C350.796 34.576 351.308 34.3307 351.927 34.192L354.151 33.68C354.641 33.5627 355.004 33.4507 355.239 33.344C355.484 33.2267 355.628 33.072 355.671 32.88H356.151V34.16C356.151 34.7147 355.831 35.0613 355.191 35.2L352.567 35.792C351.873 35.9627 351.308 36.3147 350.871 36.848C350.433 37.3707 350.193 38.1013 350.151 39.04H350.231C350.497 38.368 350.86 37.856 351.319 37.504C351.777 37.1413 352.375 36.96 353.111 36.96C354.124 36.96 354.935 37.264 355.543 37.872C356.161 38.4693 356.471 39.3653 356.471 40.56C356.471 41.7653 356.145 42.6667 355.495 43.264C354.855 43.8613 353.953 44.16 352.791 44.16ZM352.791 43.44C353.196 43.44 353.548 43.2213 353.847 42.784C354.156 42.3467 354.311 41.6053 354.311 40.56C354.311 39.8667 354.231 39.3067 354.071 38.88C353.921 38.4427 353.729 38.1333 353.495 37.952C353.271 37.7707 353.036 37.68 352.791 37.68C352.545 37.68 352.305 37.7707 352.071 37.952C351.847 38.1333 351.655 38.4427 351.495 38.88C351.345 39.3067 351.271 39.8667 351.271 40.56C351.271 41.6053 351.42 42.3467 351.719 42.784C352.028 43.2213 352.385 43.44 352.791 43.44ZM358.373 38.56C358.373 38.016 358.299 37.616 358.149 37.36C358 37.0933 357.701 36.96 357.253 36.96H357.093V36.48H359.013C359.397 36.48 359.691 36.544 359.893 36.672C360.096 36.8 360.24 37.0133 360.325 37.312C360.411 37.6 360.453 38.016 360.453 38.56V39.52H361.493C362.507 39.52 363.307 39.7173 363.893 40.112C364.48 40.496 364.773 41.0453 364.773 41.76C364.773 42.4747 364.48 43.0293 363.893 43.424C363.307 43.808 362.507 44 361.493 44H358.373V38.56ZM367.013 44C366.629 44 366.336 43.9413 366.133 43.824C365.931 43.696 365.787 43.488 365.701 43.2C365.616 42.9013 365.573 42.4747 365.573 41.92V36.48H367.653V41.92C367.653 42.464 367.728 42.8693 367.877 43.136C368.027 43.392 368.325 43.52 368.773 43.52H368.933V44H367.013ZM361.173 43.36C361.579 43.36 361.92 43.2373 362.197 42.992C362.475 42.736 362.613 42.3253 362.613 41.76C362.613 41.1947 362.475 40.7893 362.197 40.544C361.92 40.288 361.579 40.16 361.173 40.16C360.917 40.16 360.677 40.1973 360.453 40.272V43.248C360.677 43.3227 360.917 43.36 361.173 43.36ZM374.746 41.152C374.565 41.2267 374.346 41.296 374.09 41.36C373.834 41.4133 373.573 41.44 373.306 41.44C372.399 41.44 371.663 41.248 371.098 40.864C370.543 40.4693 370.266 39.8613 370.266 39.04V38.56C370.266 38.016 370.191 37.616 370.042 37.36C369.893 37.0933 369.594 36.96 369.146 36.96H368.986V36.48H370.906C371.29 36.48 371.583 36.544 371.786 36.672C371.989 36.8 372.133 37.0133 372.218 37.312C372.303 37.6 372.346 38.016 372.346 38.56V39.04C372.346 40.16 372.789 40.72 373.674 40.72C373.909 40.72 374.101 40.704 374.25 40.672C374.41 40.6293 374.575 40.56 374.746 40.464V36.48H376.826V44H374.746V41.152ZM379.045 38.56C379.045 38.016 378.971 37.616 378.821 37.36C378.672 37.0933 378.373 36.96 377.925 36.96H377.765V36.48H379.685C380.069 36.48 380.363 36.544 380.565 36.672C380.768 36.8 380.912 37.0133 380.997 37.312C381.083 37.6 381.125 38.016 381.125 38.56V39.84H383.685V36.48H385.765V41.92C385.765 42.464 385.84 42.8693 385.989 43.136C386.139 43.392 386.437 43.52 386.885 43.52H387.045V44H385.125C384.741 44 384.448 43.9413 384.245 43.824C384.043 43.696 383.899 43.488 383.813 43.2C383.728 42.9013 383.685 42.4747 383.685 41.92V40.56H381.125V44H379.045V38.56ZM391.447 44.16C390.669 44.16 389.986 43.9893 389.399 43.648C388.823 43.296 388.381 42.8267 388.071 42.24C387.762 41.6427 387.607 40.976 387.607 40.24C387.607 39.504 387.762 38.8427 388.071 38.256C388.381 37.6587 388.823 37.1893 389.399 36.848C389.986 36.496 390.669 36.32 391.447 36.32C392.226 36.32 392.903 36.496 393.479 36.848C394.066 37.1893 394.514 37.6587 394.823 38.256C395.133 38.8427 395.287 39.504 395.287 40.24C395.287 40.976 395.133 41.6427 394.823 42.24C394.514 42.8267 394.066 43.296 393.479 43.648C392.903 43.9893 392.226 44.16 391.447 44.16ZM391.447 43.44C391.991 43.44 392.407 43.1467 392.695 42.56C392.983 41.9733 393.127 41.2 393.127 40.24C393.127 39.28 392.983 38.5067 392.695 37.92C392.407 37.3333 391.991 37.04 391.447 37.04C390.903 37.04 390.487 37.3333 390.199 37.92C389.911 38.5067 389.767 39.28 389.767 40.24C389.767 41.2 389.911 41.9733 390.199 42.56C390.487 43.1467 390.903 43.44 391.447 43.44ZM400.131 44.16C399.395 44.16 398.75 43.9893 398.195 43.648C397.641 43.3067 397.209 42.8427 396.899 42.256C396.601 41.6587 396.451 40.9867 396.451 40.24C396.451 39.408 396.601 38.6987 396.899 38.112C397.209 37.5253 397.63 37.0827 398.163 36.784C398.697 36.4747 399.299 36.32 399.971 36.32C400.633 36.32 401.23 36.4533 401.763 36.72C402.297 36.9867 402.718 37.3653 403.027 37.856C403.337 38.336 403.491 38.8907 403.491 39.52L403.427 40.528H398.611C398.611 41.5413 398.766 42.2827 399.075 42.752C399.385 43.2107 399.817 43.44 400.371 43.44C400.883 43.44 401.31 43.328 401.651 43.104C402.003 42.8693 402.339 42.5387 402.659 42.112L403.155 42.48C402.846 42.96 402.457 43.36 401.987 43.68C401.529 44 400.91 44.16 400.131 44.16ZM401.331 39.808C401.331 38.8053 401.214 38.096 400.979 37.68C400.745 37.2533 400.409 37.04 399.971 37.04C399.566 37.04 399.235 37.2587 398.979 37.696C398.734 38.1227 398.611 38.8267 398.611 39.808H401.331Z" fill="#64C337"/>
<defs>
<filter id="filter0_d" x="0" y="0" width="429" height="267" filterUnits="userSpaceOnUse" color-interpolation-filters="sRGB">
<feFlood flood-opacity="0" result="BackgroundImageFix"/>
<feColorMatrix in="SourceAlpha" type="matrix" values="0 0 0 0 0 0 0 0 0 0 0 0 0 0 0 0 0 0 127 0"/>
<feOffset dy="4"/>
<feGaussianBlur stdDeviation="2"/>
<feColorMatrix type="matrix" values="0 0 0 0 0 0 0 0 0 0 0 0 0 0 0 0 0 0 0.25 0"/>
<feBlend mode="normal" in2="BackgroundImageFix" result="effect1_dropShadow"/>
<feBlend mode="normal" in="SourceGraphic" in2="effect1_dropShadow" result="shape"/>
</filter>
<linearGradient id="paint0_linear" x1="214.5" y1="197" x2="214.5" y2="88" gradientUnits="userSpaceOnUse">
<stop stop-color="#7E8290" stop-opacity="0"/>
<stop offset="0.505208" stop-color="#7E8291" stop-opacity="0.90625"/>
<stop offset="1" stop-color="#7E8291" stop-opacity="0"/>
</linearGradient>
<linearGradient id="paint1_linear" x1="307.12" y1="-100.86" x2="262.224" y2="87.3822" gradientUnits="userSpaceOnUse">
<stop offset="0.141155" stop-color="#64C337"/>
<stop offset="1" stop-color="#001023" stop-opacity="0"/>
</linearGradient>
</defs>
</svg>
