<svg width="429" height="267" viewBox="0 0 429 267" fill="none" xmlns="http://www.w3.org/2000/svg">
<g filter="url(#filter0_d)">
<rect x="4" width="421" height="259" rx="9" fill="#1C1E22"/>
<rect x="4.5" y="0.5" width="420" height="258" rx="8.5" stroke="#AD00FF"/>
</g>
<path opacity="0.1" fill-rule="evenodd" clip-rule="evenodd" d="M214 197L214 88L215 88L215 197L214 197Z" fill="url(#paint0_linear)"/>
<path fill-rule="evenodd" clip-rule="evenodd" d="M218.912 214H425V213H218.912L214.247 209L209.583 213H4V214H209.583L214.247 218L218.912 214Z" fill="#AD00FF"/>
<path d="M4 8C4 3.58172 7.58172 0 12 0H417C421.418 0 425 3.58172 425 8V75H4V8Z" fill="url(#paint1_linear)"/>
<path fill-rule="evenodd" clip-rule="evenodd" d="M218.912 76H425V75H218.912L214.247 71L209.583 75H4V76H209.583L214.247 80L218.912 76Z" fill="#AD00FF"/>
<path d="M330.399 44.32C329.289 44.32 328.372 44.1173 327.647 43.712C326.921 43.296 326.303 42.64 325.791 41.744L326.351 41.312C326.735 42.048 327.236 42.6133 327.855 43.008C328.484 43.4027 329.172 43.6 329.919 43.6C331.081 43.6 331.951 43.168 332.527 42.304C333.113 41.44 333.417 40.352 333.439 39.04H328.479V38.32H333.423C333.316 35.3333 332.148 33.84 329.919 33.84C329.044 33.84 328.335 34.096 327.791 34.608C327.247 35.12 326.873 35.8667 326.671 36.848H326.191C326.191 36.1973 326.212 35.6907 326.255 35.328C326.297 34.9653 326.415 34.6613 326.607 34.416C326.937 34.032 327.417 33.7227 328.047 33.488C328.676 33.2427 329.46 33.12 330.399 33.12C331.391 33.12 332.287 33.376 333.087 33.888C333.897 34.3893 334.532 35.0827 334.991 35.968C335.449 36.8427 335.679 37.8133 335.679 38.88C335.679 39.9147 335.471 40.8427 335.055 41.664C334.639 42.4853 334.031 43.136 333.231 43.616C332.441 44.0853 331.497 44.32 330.399 44.32ZM337.45 38.56C337.45 38.016 337.375 37.616 337.226 37.36C337.076 37.0933 336.778 36.96 336.33 36.96H336.25V36.48H344.17V44H342.09V37.2H339.53V44H337.45V38.56ZM346.389 38.56C346.389 38.016 346.314 37.616 346.165 37.36C346.016 37.0933 345.717 36.96 345.269 36.96H345.109V36.48H347.029C347.413 36.48 347.706 36.544 347.909 36.672C348.112 36.8 348.256 37.0133 348.341 37.312C348.426 37.6 348.469 38.016 348.469 38.56V42L351.349 36.48H353.269V44H351.189V38.48L348.309 44H346.389V38.56ZM360.058 41.152C359.877 41.2267 359.658 41.296 359.402 41.36C359.146 41.4133 358.885 41.44 358.618 41.44C357.712 41.44 356.976 41.248 356.41 40.864C355.856 40.4693 355.578 39.8613 355.578 39.04V38.56C355.578 38.016 355.504 37.616 355.354 37.36C355.205 37.0933 354.906 36.96 354.458 36.96H354.298V36.48H356.218C356.602 36.48 356.896 36.544 357.098 36.672C357.301 36.8 357.445 37.0133 357.53 37.312C357.616 37.6 357.658 38.016 357.658 38.56V39.04C357.658 40.16 358.101 40.72 358.986 40.72C359.221 40.72 359.413 40.704 359.562 40.672C359.722 40.6293 359.888 40.56 360.058 40.464V36.48H362.138V44H360.058V41.152ZM367.366 44.16C366.63 44.16 365.984 43.9893 365.43 43.648C364.875 43.3067 364.443 42.8427 364.134 42.256C363.835 41.6587 363.686 40.9867 363.686 40.24C363.686 39.408 363.835 38.6987 364.134 38.112C364.443 37.5253 364.864 37.0827 365.398 36.784C365.931 36.4747 366.534 36.32 367.206 36.32C367.867 36.32 368.464 36.4533 368.998 36.72C369.531 36.9867 369.952 37.3653 370.262 37.856C370.571 38.336 370.726 38.8907 370.726 39.52L370.662 40.528H365.846C365.846 41.5413 366 42.2827 366.31 42.752C366.619 43.2107 367.051 43.44 367.606 43.44C368.118 43.44 368.544 43.328 368.886 43.104C369.238 42.8693 369.574 42.5387 369.894 42.112L370.39 42.48C370.08 42.96 369.691 43.36 369.222 43.68C368.763 44 368.144 44.16 367.366 44.16ZM368.566 39.808C368.566 38.8053 368.448 38.096 368.214 37.68C367.979 37.2533 367.643 37.04 367.206 37.04C366.8 37.04 366.47 37.2587 366.214 37.696C365.968 38.1227 365.846 38.8267 365.846 39.808H368.566ZM375.65 44.16C374.829 44.16 374.13 43.984 373.554 43.632C372.978 43.28 372.541 42.8107 372.242 42.224C371.954 41.6267 371.81 40.9653 371.81 40.24C371.81 39.5147 371.954 38.8587 372.242 38.272C372.541 37.6747 372.978 37.2 373.554 36.848C374.13 36.496 374.829 36.32 375.65 36.32C376.93 36.32 377.757 36.5067 378.13 36.88C378.312 37.0613 378.424 37.3013 378.466 37.6C378.509 37.8987 378.53 38.4053 378.53 39.12H378.05C378.008 38.448 377.8 37.936 377.426 37.584C377.053 37.2213 376.541 37.04 375.89 37.04C375.304 37.04 374.834 37.312 374.482 37.856C374.141 38.3893 373.97 39.184 373.97 40.24C373.97 42.3733 374.637 43.44 375.97 43.44C376.482 43.44 376.909 43.328 377.25 43.104C377.602 42.8693 377.938 42.5387 378.258 42.112L378.754 42.48C378.445 42.96 378.056 43.36 377.586 43.68C377.117 44 376.472 44.16 375.65 44.16ZM386.436 44.16C385.967 44.16 385.535 44.064 385.14 43.872C384.756 43.6693 384.393 43.3387 384.052 42.88L382.516 40.864V44H380.436V38.56C380.436 38.016 380.361 37.616 380.212 37.36C380.063 37.0933 379.764 36.96 379.316 36.96H379.156V36.48H381.076C381.46 36.48 381.753 36.544 381.956 36.672C382.159 36.8 382.303 37.0133 382.388 37.312C382.473 37.6 382.516 38.016 382.516 38.56V40.08L384.452 37.712C384.815 37.2747 385.156 36.96 385.476 36.768C385.796 36.576 386.223 36.48 386.756 36.48H387.076V36.896C386.756 36.896 386.468 36.96 386.212 37.088C385.956 37.216 385.711 37.4187 385.476 37.696L383.924 39.584L386.052 42.4C386.564 43.0933 387.06 43.4987 387.54 43.616V44C387.455 44.0427 387.3 44.08 387.076 44.112C386.852 44.144 386.639 44.16 386.436 44.16ZM391.447 44.16C390.669 44.16 389.986 43.9893 389.399 43.648C388.823 43.296 388.381 42.8267 388.071 42.24C387.762 41.6427 387.607 40.976 387.607 40.24C387.607 39.504 387.762 38.8427 388.071 38.256C388.381 37.6587 388.823 37.1893 389.399 36.848C389.986 36.496 390.669 36.32 391.447 36.32C392.226 36.32 392.903 36.496 393.479 36.848C394.066 37.1893 394.514 37.6587 394.823 38.256C395.133 38.8427 395.287 39.504 395.287 40.24C395.287 40.976 395.133 41.6427 394.823 42.24C394.514 42.8267 394.066 43.296 393.479 43.648C392.903 43.9893 392.226 44.16 391.447 44.16ZM391.447 43.44C391.991 43.44 392.407 43.1467 392.695 42.56C392.983 41.9733 393.127 41.2 393.127 40.24C393.127 39.28 392.983 38.5067 392.695 37.92C392.407 37.3333 391.991 37.04 391.447 37.04C390.903 37.04 390.487 37.3333 390.199 37.92C389.911 38.5067 389.767 39.28 389.767 40.24C389.767 41.2 389.911 41.9733 390.199 42.56C390.487 43.1467 390.903 43.44 391.447 43.44ZM400.131 44.16C399.395 44.16 398.75 43.9893 398.195 43.648C397.641 43.3067 397.209 42.8427 396.899 42.256C396.601 41.6587 396.451 40.9867 396.451 40.24C396.451 39.408 396.601 38.6987 396.899 38.112C397.209 37.5253 397.63 37.0827 398.163 36.784C398.697 36.4747 399.299 36.32 399.971 36.32C400.633 36.32 401.23 36.4533 401.763 36.72C402.297 36.9867 402.718 37.3653 403.027 37.856C403.337 38.336 403.491 38.8907 403.491 39.52L403.427 40.528H398.611C398.611 41.5413 398.766 42.2827 399.075 42.752C399.385 43.2107 399.817 43.44 400.371 43.44C400.883 43.44 401.31 43.328 401.651 43.104C402.003 42.8693 402.339 42.5387 402.659 42.112L403.155 42.48C402.846 42.96 402.457 43.36 401.987 43.68C401.529 44 400.91 44.16 400.131 44.16ZM401.331 39.808C401.331 38.8053 401.214 38.096 400.979 37.68C400.745 37.2533 400.409 37.04 399.971 37.04C399.566 37.04 399.235 37.2587 398.979 37.696C398.734 38.1227 398.611 38.8267 398.611 39.808H401.331Z" fill="#AD00FF"/>
<defs>
<filter id="filter0_d" x="0" y="0" width="429" height="267" filterUnits="userSpaceOnUse" color-interpolation-filters="sRGB">
<feFlood flood-opacity="0" result="BackgroundImageFix"/>
<feColorMatrix in="SourceAlpha" type="matrix" values="0 0 0 0 0 0 0 0 0 0 0 0 0 0 0 0 0 0 127 0"/>
<feOffset dy="4"/>
<feGaussianBlur stdDeviation="2"/>
<feColorMatrix type="matrix" values="0 0 0 0 0 0 0 0 0 0 0 0 0 0 0 0 0 0 0.25 0"/>
<feBlend mode="normal" in2="BackgroundImageFix" result="effect1_dropShadow"/>
<feBlend mode="normal" in="SourceGraphic" in2="effect1_dropShadow" result="shape"/>
</filter>
<linearGradient id="paint0_linear" x1="214.5" y1="197" x2="214.5" y2="88" gradientUnits="userSpaceOnUse">
<stop stop-color="#7E8290" stop-opacity="0"/>
<stop offset="0.505208" stop-color="#7E8291" stop-opacity="0.90625"/>
<stop offset="1" stop-color="#7E8291" stop-opacity="0"/>
</linearGradient>
<linearGradient id="paint1_linear" x1="307.12" y1="-99.5327" x2="263.336" y2="86.4942" gradientUnits="userSpaceOnUse">
<stop offset="0.141155" stop-color="#AD00FF"/>
<stop offset="1" stop-color="#8A02CA" stop-opacity="0"/>
</linearGradient>
</defs>
</svg>
