<svg width="1068" height="192" viewBox="0 0 1068 192" fill="none" xmlns="http://www.w3.org/2000/svg">
<g filter="url(#filter0_d)">
<path d="M11.7034 21.68C11.7034 16.784 11.0314 13.184 9.68744 10.88C8.34344 8.47999 5.65544 7.27999 1.62344 7.27999H0.183438V2.96H39.0634C51.1594 2.96 61.2394 4.64 69.3034 8C77.4634 11.36 81.5434 18.08 81.5434 28.16C81.5434 32.576 79.7674 36.752 76.2154 40.688C72.7594 44.528 67.8634 47.264 61.5274 48.896C77.7514 50.528 85.8634 58.112 85.8634 71.648C85.8634 81.632 81.8794 88.544 73.9114 92.384C65.9434 96.128 55.7674 98 43.3834 98H11.7034V21.68ZM41.2234 46.016C47.4634 46.016 52.3594 44.576 55.9114 41.696C59.5594 38.72 61.3834 33.968 61.3834 27.44C61.3834 20.816 59.2234 16.064 54.9034 13.184C50.6794 10.208 45.3994 8.72 39.0634 8.72C36.5674 8.72 33.6874 9.056 30.4234 9.72799V46.016H41.2234ZM41.2234 92.24C49.1914 92.24 55.2394 90.512 59.3674 87.056C63.5914 83.6 65.7034 78.704 65.7034 72.368C65.7034 59.12 57.5434 52.496 41.2234 52.496H30.4234V90.8C33.7834 91.76 37.3834 92.24 41.2234 92.24ZM111.431 22.544C107.975 22.544 105.287 21.488 103.367 19.376C101.543 17.264 100.631 14.672 100.631 11.6C100.631 9.10399 101.351 7.13599 102.791 5.696C104.327 4.256 106.247 3.536 108.551 3.536C112.007 3.536 114.647 4.592 116.471 6.704C118.391 8.816 119.351 11.408 119.351 14.48C119.351 16.976 118.583 18.944 117.047 20.384C115.607 21.824 113.735 22.544 111.431 22.544ZM102.071 49.04C102.071 44.144 101.399 40.544 100.055 38.24C98.7113 35.84 96.0233 34.64 91.9913 34.64H90.5513V30.32H107.831C111.287 30.32 113.927 30.896 115.751 32.048C117.575 33.2 118.871 35.12 119.639 37.808C120.407 40.4 120.791 44.144 120.791 49.04V98H102.071V49.04ZM138.302 21.68C138.302 16.784 137.63 13.184 136.286 10.88C134.942 8.47999 132.254 7.27999 128.222 7.27999H126.782V2.96H144.062C147.518 2.96 150.158 3.536 151.982 4.688C153.806 5.84 155.102 7.75999 155.87 10.448C156.638 13.04 157.022 16.784 157.022 21.68V98H138.302V21.68ZM175.427 21.68C175.427 16.784 174.755 13.184 173.411 10.88C172.067 8.47999 169.379 7.27999 165.347 7.27999H163.907V2.96H181.187C184.643 2.96 187.283 3.536 189.107 4.688C190.931 5.84 192.227 7.75999 192.995 10.448C193.763 13.04 194.147 16.784 194.147 21.68V98H175.427V21.68ZM216.584 121.76C221.864 121.76 226.136 120.752 229.4 118.736C232.664 116.72 235.304 113.072 237.32 107.792L240.344 100.016L214.424 43.28C211.256 36.368 206.792 32.528 201.032 31.76V28.88H213.704C217.928 28.88 221.672 29.936 224.936 32.048C228.2 34.064 230.696 36.848 232.424 40.4L248.984 76.688L266.552 30.32H274.184L245.096 107.36C242.408 114.848 239.288 119.936 235.736 122.624C232.184 125.408 227.72 126.8 222.344 126.8H216.584V121.76ZM283.514 35.216C286.682 33.104 289.418 30.56 291.722 27.584C294.122 24.512 295.322 21.056 295.322 17.216L293.162 17.648C290.378 17.648 288.218 16.88 286.682 15.344C285.146 13.712 284.378 11.552 284.378 8.864C284.378 6.176 285.146 4.064 286.682 2.52799C288.218 0.895997 290.378 0.079999 293.162 0.079999C296.138 0.079999 298.442 1.184 300.074 3.392C301.802 5.6 302.666 8.24 302.666 11.312C302.666 16.976 301.37 21.968 298.778 26.288C296.282 30.608 292.058 34.736 286.106 38.672L283.514 35.216ZM338.687 99.44C327.455 99.44 319.727 97.472 315.503 93.536C313.967 92.096 313.007 90.08 312.623 87.488C312.239 84.8 312.047 81.104 312.047 76.4H317.087C317.951 81.392 319.919 85.424 322.991 88.496C326.063 91.472 330.335 92.96 335.807 92.96C345.407 92.96 350.207 89.696 350.207 83.168C350.207 80.672 349.151 78.608 347.039 76.976C345.023 75.344 341.759 73.52 337.247 71.504L329.759 68.336C323.615 65.648 319.007 62.72 315.935 59.552C312.863 56.384 311.327 52.544 311.327 48.032C311.327 41.984 313.823 37.28 318.815 33.92C323.903 30.56 330.527 28.88 338.687 28.88C349.919 28.88 357.647 30.848 361.871 34.784C363.407 36.224 364.367 38.24 364.751 40.832C365.135 43.424 365.327 47.12 365.327 51.92H360.287C359.423 46.928 357.455 42.944 354.383 39.968C351.311 36.896 347.039 35.36 341.567 35.36C337.439 35.36 334.367 36.272 332.351 38.096C330.335 39.824 329.327 42.176 329.327 45.152C329.327 47.552 330.143 49.568 331.775 51.2C333.503 52.736 336.095 54.272 339.551 55.808L348.191 59.408C355.295 62.384 360.383 65.408 363.455 68.48C366.623 71.456 368.207 75.392 368.207 80.288C368.207 86.432 365.471 91.184 359.999 94.544C354.623 97.808 347.519 99.44 338.687 99.44ZM499.502 98.576C493.454 98.576 487.982 97.328 483.086 94.832C478.19 92.24 474.206 87.248 471.134 79.856L467.822 71.792H429.518L417.71 98H410.222L452.702 2.96H459.182L491.438 79.856C495.086 88.784 500.078 93.584 506.414 94.256V97.856C504.686 98.336 502.382 98.576 499.502 98.576ZM465.086 65.312L449.246 27.728L432.542 65.312H465.086ZM537.17 99.44C527.474 99.44 519.986 96.176 514.706 89.648C509.522 83.024 506.93 74.528 506.93 64.16C506.93 53.792 509.57 45.344 514.85 38.816C520.226 32.192 527.906 28.88 537.89 28.88C543.362 28.88 548.402 30.32 553.01 33.2V21.68C553.01 16.784 552.338 13.184 550.994 10.88C549.65 8.47999 546.962 7.27999 542.93 7.27999H541.49V2.96H558.77C562.226 2.96 564.866 3.536 566.69 4.688C568.514 5.84 569.81 7.75999 570.578 10.448C571.346 13.04 571.73 16.784 571.73 21.68V98H559.49L554.45 91.52H553.73C552.386 93.728 550.226 95.6 547.25 97.136C544.37 98.672 541.01 99.44 537.17 99.44ZM540.05 92.96C543.122 92.96 545.714 92 547.826 90.08C550.034 88.16 551.762 86 553.01 83.6V39.68C549.074 36.8 544.994 35.36 540.77 35.36C531.17 35.36 526.37 44.96 526.37 64.16C526.37 73.088 527.426 80.144 529.538 85.328C531.746 90.416 535.25 92.96 540.05 92.96ZM591.44 46.88C588.848 41.504 586.64 37.76 584.816 35.648C582.992 33.44 580.928 32.24 578.624 32.048V29.168L583.952 28.88C590.384 28.88 595.76 30.128 600.08 32.624C604.496 35.12 608.336 39.872 611.6 46.88L624.272 74.528L643.856 30.32H651.632L620.96 99.44H615.776L591.44 46.88ZM689.815 99.44C683.191 99.44 677.383 97.904 672.391 94.832C667.399 91.76 663.511 87.584 660.727 82.304C658.039 76.928 656.695 70.88 656.695 64.16C656.695 56.672 658.039 50.288 660.727 45.008C663.511 39.728 667.303 35.744 672.103 33.056C676.903 30.272 682.327 28.88 688.375 28.88C694.327 28.88 699.703 30.08 704.503 32.48C709.303 34.88 713.095 38.288 715.879 42.704C718.663 47.024 720.055 52.016 720.055 57.68L719.479 66.752H676.135C676.135 75.872 677.527 82.544 680.311 86.768C683.095 90.896 686.983 92.96 691.975 92.96C696.583 92.96 700.423 91.952 703.495 89.936C706.663 87.824 709.687 84.848 712.567 81.008L717.031 84.32C714.247 88.64 710.743 92.24 706.519 95.12C702.391 98 696.823 99.44 689.815 99.44ZM700.615 60.272C700.615 51.248 699.559 44.864 697.447 41.12C695.335 37.28 692.311 35.36 688.375 35.36C684.727 35.36 681.751 37.328 679.447 41.264C677.239 45.104 676.135 51.44 676.135 60.272H700.615ZM736.153 49.04C736.153 44.144 735.481 40.544 734.137 38.24C732.889 35.84 730.249 34.64 726.217 34.64H724.777V30.32H739.033C742.297 30.32 744.841 30.752 746.665 31.616C748.585 32.384 750.073 33.728 751.129 35.648C756.025 31.136 763.033 28.88 772.153 28.88C781.273 28.88 788.089 31.04 792.601 35.36C797.209 39.584 799.513 46.256 799.513 55.376V98H780.793V55.232C780.793 48.608 779.545 43.76 777.049 40.688C774.649 37.616 771.337 36.08 767.113 36.08C762.025 36.08 757.945 37.28 754.873 39.68V98H736.153V49.04ZM840.005 99.44C833.381 99.44 828.245 97.664 824.597 94.112C820.949 90.464 819.125 85.232 819.125 78.416V36.8H810.485V30.32H819.125V17.36L826.325 8.72H837.845V30.32H853.685V36.8H837.845V79.28C837.845 84.464 838.469 88.064 839.717 90.08C840.965 92 842.837 92.96 845.333 92.96C849.269 92.96 853.061 91.664 856.709 89.072L858.725 93.104C853.925 97.328 847.685 99.44 840.005 99.44ZM895.087 99.44C885.967 99.44 879.247 97.328 874.927 93.104C870.607 88.88 868.447 82.16 868.447 72.944V49.04C868.447 44.144 867.775 40.544 866.431 38.24C865.087 35.84 862.399 34.64 858.367 34.64H856.927V30.32H874.207C877.663 30.32 880.303 30.896 882.127 32.048C883.951 33.2 885.247 35.12 886.015 37.808C886.783 40.4 887.167 44.144 887.167 49.04V73.088C887.167 80.288 888.175 85.424 890.191 88.496C892.207 91.472 895.279 92.96 899.407 92.96C902.479 92.96 905.071 92 907.183 90.08C909.391 88.16 911.119 86 912.367 83.6V30.32H931.087V98H918.847L913.807 91.52H913.087C908.191 96.8 902.191 99.44 895.087 99.44ZM994.653 31.76C996.381 33.008 997.629 34.4 998.397 35.936C999.165 37.376 999.549 38.144 999.549 38.24L992.205 43.856C991.149 42.32 989.757 41.024 988.029 39.968C986.301 38.816 984.381 38.24 982.269 38.24C976.701 38.24 972.429 39.728 969.453 42.704C969.837 45.776 970.029 48.08 970.029 49.616V98H951.309V49.04C951.309 44.144 950.637 40.544 949.293 38.24C948.045 35.84 945.405 34.64 941.373 34.64H939.933V30.32H954.189C957.453 30.32 959.997 30.752 961.821 31.616C963.741 32.384 965.229 33.728 966.285 35.648C971.469 31.136 977.517 28.88 984.429 28.88C988.557 28.88 991.965 29.84 994.653 31.76ZM1037.16 99.44C1030.53 99.44 1024.73 97.904 1019.73 94.832C1014.74 91.76 1010.85 87.584 1008.07 82.304C1005.38 76.928 1004.04 70.88 1004.04 64.16C1004.04 56.672 1005.38 50.288 1008.07 45.008C1010.85 39.728 1014.65 35.744 1019.45 33.056C1024.25 30.272 1029.67 28.88 1035.72 28.88C1041.67 28.88 1047.05 30.08 1051.85 32.48C1056.65 34.88 1060.44 38.288 1063.22 42.704C1066.01 47.024 1067.4 52.016 1067.4 57.68L1066.82 66.752H1023.48C1023.48 75.872 1024.87 82.544 1027.65 86.768C1030.44 90.896 1034.33 92.96 1039.32 92.96C1043.93 92.96 1047.77 91.952 1050.84 89.936C1054.01 87.824 1057.03 84.848 1059.91 81.008L1064.37 84.32C1061.59 88.64 1058.09 92.24 1053.86 95.12C1049.73 98 1044.17 99.44 1037.16 99.44ZM1047.96 60.272C1047.96 51.248 1046.9 44.864 1044.79 41.12C1042.68 37.28 1039.65 35.36 1035.72 35.36C1032.07 35.36 1029.09 37.328 1026.79 41.264C1024.58 45.104 1023.48 51.44 1023.48 60.272H1047.96ZM353.841 147.56C353.841 145.928 353.617 144.728 353.169 143.96C352.721 143.16 351.825 142.76 350.481 142.76H350.001V141.32H363.057C369.521 141.32 374.433 142.696 377.793 145.448C381.185 148.168 382.881 152.008 382.881 156.968C382.881 160.136 382.161 162.936 380.721 165.368C379.313 167.768 377.201 169.64 374.385 170.984C371.601 172.328 368.241 173 364.305 173H353.841V147.56ZM364.161 171.08C366.401 171.08 368.385 170.52 370.113 169.4C371.873 168.28 373.233 166.664 374.193 164.552C375.185 162.44 375.681 159.976 375.681 157.16C375.681 154.376 375.185 151.944 374.193 149.864C373.233 147.752 371.873 146.12 370.113 144.968C368.353 143.816 366.337 143.24 364.065 143.24C362.881 143.24 361.553 143.352 360.081 143.576V170.744C360.913 170.904 361.553 171 362.001 171.032C362.449 171.064 362.881 171.08 363.297 171.08C363.713 171.08 364.001 171.08 364.161 171.08ZM394.177 173.48C391.585 173.48 389.569 172.904 388.129 171.752C386.721 170.568 386.017 168.984 386.017 167C386.017 165.4 386.385 164.072 387.121 163.016C387.889 161.96 389.217 161.16 391.105 160.616C392.993 160.072 395.617 159.8 398.977 159.8H399.697C399.697 157.016 399.313 155.048 398.545 153.896C397.777 152.712 396.641 152.12 395.137 152.12C393.889 152.12 392.865 152.424 392.065 153.032C391.265 153.64 390.689 154.776 390.337 156.44H387.697C387.697 155.352 387.761 154.424 387.889 153.656C388.049 152.888 388.385 152.216 388.897 151.64C389.889 150.52 392.289 149.96 396.097 149.96C399.297 149.96 401.729 150.808 403.393 152.504C405.089 154.168 405.937 156.68 405.937 160.04V173H401.857L400.177 170.84H399.937C399.457 171.576 398.705 172.2 397.681 172.712C396.689 173.224 395.521 173.48 394.177 173.48ZM395.617 171.08C396.577 171.08 397.409 170.76 398.113 170.12C398.849 169.48 399.377 168.76 399.697 167.96V161.96H398.977C396.705 161.96 395.057 162.376 394.033 163.208C393.009 164.008 392.497 165.272 392.497 167C392.497 168.312 392.769 169.32 393.313 170.024C393.857 170.728 394.625 171.08 395.617 171.08ZM426.726 150.92C427.302 151.336 427.718 151.8 427.974 152.312C428.23 152.792 428.358 153.048 428.358 153.08L425.91 154.952C425.558 154.44 425.094 154.008 424.518 153.656C423.942 153.272 423.302 153.08 422.598 153.08C420.742 153.08 419.318 153.576 418.326 154.568C418.454 155.592 418.518 156.36 418.518 156.872V173H412.278V156.68C412.278 155.048 412.054 153.848 411.605 153.08C411.19 152.28 410.31 151.88 408.966 151.88H408.486V150.44H413.238C414.326 150.44 415.174 150.584 415.782 150.872C416.422 151.128 416.918 151.576 417.27 152.216C418.998 150.712 421.014 149.96 423.318 149.96C424.694 149.96 425.83 150.28 426.726 150.92ZM449.38 173.48C447.972 173.48 446.676 173.192 445.492 172.616C444.34 172.008 443.252 171.016 442.228 169.64L437.62 163.592V173H431.38V147.56C431.38 145.928 431.156 144.728 430.708 143.96C430.26 143.16 429.364 142.76 428.02 142.76H427.54V141.32H433.3C434.452 141.32 435.332 141.512 435.94 141.896C436.548 142.28 436.98 142.92 437.236 143.816C437.492 144.68 437.62 145.928 437.62 147.56V161.24L443.428 154.136C444.516 152.824 445.54 151.88 446.5 151.304C447.46 150.728 448.74 150.44 450.34 150.44H451.3V151.688C450.34 151.688 449.476 151.88 448.708 152.264C447.94 152.648 447.204 153.256 446.5 154.088L441.844 159.752L448.228 168.2C449.764 170.28 451.252 171.496 452.692 171.848V173C452.436 173.128 451.956 173.24 451.252 173.336C450.58 173.432 449.956 173.48 449.38 173.48ZM463.957 173.48C461.749 173.48 459.813 172.968 458.149 171.944C456.485 170.92 455.189 169.528 454.261 167.768C453.365 165.976 452.917 163.96 452.917 161.72C452.917 159.224 453.365 157.096 454.261 155.336C455.189 153.576 456.453 152.248 458.053 151.352C459.653 150.424 461.461 149.96 463.477 149.96C465.461 149.96 467.253 150.36 468.853 151.16C470.453 151.96 471.717 153.096 472.645 154.568C473.573 156.008 474.037 157.672 474.037 159.56L473.845 162.584H459.397C459.397 165.624 459.861 167.848 460.789 169.256C461.717 170.632 463.013 171.32 464.677 171.32C466.213 171.32 467.493 170.984 468.517 170.312C469.573 169.608 470.581 168.616 471.541 167.336L473.029 168.44C472.101 169.88 470.933 171.08 469.525 172.04C468.149 173 466.293 173.48 463.957 173.48ZM467.557 160.424C467.557 157.416 467.205 155.288 466.501 154.04C465.797 152.76 464.789 152.12 463.477 152.12C462.261 152.12 461.269 152.776 460.501 154.088C459.765 155.368 459.397 157.48 459.397 160.424H467.557ZM486.555 173.48C482.811 173.48 480.235 172.824 478.827 171.512C478.315 171.032 477.995 170.36 477.867 169.496C477.739 168.6 477.675 167.368 477.675 165.8H479.355C479.643 167.464 480.299 168.808 481.323 169.832C482.347 170.824 483.771 171.32 485.595 171.32C488.795 171.32 490.395 170.232 490.395 168.056C490.395 167.224 490.043 166.536 489.339 165.992C488.667 165.448 487.579 164.84 486.075 164.168L483.579 163.112C481.531 162.216 479.995 161.24 478.971 160.184C477.947 159.128 477.435 157.848 477.435 156.344C477.435 154.328 478.267 152.76 479.931 151.64C481.627 150.52 483.835 149.96 486.555 149.96C490.299 149.96 492.875 150.616 494.283 151.928C494.795 152.408 495.115 153.08 495.243 153.944C495.371 154.808 495.435 156.04 495.435 157.64H493.755C493.467 155.976 492.811 154.648 491.787 153.656C490.763 152.632 489.339 152.12 487.515 152.12C486.139 152.12 485.115 152.424 484.443 153.032C483.771 153.608 483.435 154.392 483.435 155.384C483.435 156.184 483.707 156.856 484.251 157.4C484.827 157.912 485.691 158.424 486.843 158.936L489.723 160.136C492.091 161.128 493.787 162.136 494.811 163.16C495.867 164.152 496.395 165.464 496.395 167.096C496.395 169.144 495.483 170.728 493.659 171.848C491.867 172.936 489.499 173.48 486.555 173.48ZM508.864 173.48C506.656 173.48 504.944 172.888 503.728 171.704C502.512 170.488 501.904 168.744 501.904 166.472V152.6H499.024V150.44H501.904V146.12L504.304 143.24H508.144V150.44H513.424V152.6H508.144V166.76C508.144 168.488 508.352 169.688 508.768 170.36C509.184 171 509.808 171.32 510.64 171.32C511.952 171.32 513.216 170.888 514.432 170.024L515.104 171.368C513.504 172.776 511.424 173.48 508.864 173.48ZM531.544 147.56C531.544 145.928 531.32 144.728 530.872 143.96C530.424 143.16 529.528 142.76 528.184 142.76H527.704V141.32H540.76C547.224 141.32 552.136 142.696 555.496 145.448C558.888 148.168 560.584 152.008 560.584 156.968C560.584 160.136 559.864 162.936 558.424 165.368C557.016 167.768 554.904 169.64 552.088 170.984C549.304 172.328 545.944 173 542.008 173H531.544V147.56ZM541.864 171.08C544.104 171.08 546.088 170.52 547.816 169.4C549.576 168.28 550.936 166.664 551.896 164.552C552.888 162.44 553.384 159.976 553.384 157.16C553.384 154.376 552.888 151.944 551.896 149.864C550.936 147.752 549.576 146.12 547.816 144.968C546.056 143.816 544.04 143.24 541.768 143.24C540.584 143.24 539.256 143.352 537.784 143.576V170.744C538.616 170.904 539.256 171 539.704 171.032C540.152 171.064 540.584 171.08 541 171.08C541.416 171.08 541.704 171.08 541.864 171.08ZM574.568 173.48C571.528 173.48 569.288 172.776 567.848 171.368C566.408 169.96 565.688 167.72 565.688 164.648V156.68C565.688 155.048 565.464 153.848 565.016 153.08C564.568 152.28 563.672 151.88 562.328 151.88H561.848V150.44H567.608C568.76 150.44 569.64 150.632 570.248 151.016C570.856 151.4 571.288 152.04 571.544 152.936C571.8 153.8 571.928 155.048 571.928 156.68V164.696C571.928 167.096 572.264 168.808 572.936 169.832C573.608 170.824 574.632 171.32 576.008 171.32C577.032 171.32 577.896 171 578.6 170.36C579.336 169.72 579.912 169 580.328 168.2V150.44H586.568V173H582.488L580.808 170.84H580.568C578.936 172.6 576.936 173.48 574.568 173.48ZM593.309 156.68C593.309 155.048 593.085 153.848 592.637 153.08C592.221 152.28 591.341 151.88 589.997 151.88H589.517V150.44H594.269C595.357 150.44 596.205 150.584 596.813 150.872C597.453 151.128 597.949 151.576 598.301 152.216C599.933 150.712 602.269 149.96 605.309 149.96C608.349 149.96 610.621 150.68 612.125 152.12C613.661 153.528 614.429 155.752 614.429 158.792V173H608.189V158.744C608.189 156.536 607.773 154.92 606.941 153.896C606.141 152.872 605.037 152.36 603.629 152.36C601.933 152.36 600.573 152.76 599.549 153.56V173H593.309V156.68ZM629.51 182.6C625.862 182.6 622.982 182.008 620.87 180.824C618.79 179.672 617.75 177.784 617.75 175.16C617.75 173.56 618.39 172.232 619.67 171.176C620.95 170.12 622.47 169.368 624.23 168.92C622.79 168.472 622.07 167.592 622.07 166.28C622.07 165.192 622.71 164.392 623.99 163.88C622.614 163.4 621.462 162.568 620.534 161.384C619.638 160.2 619.19 158.888 619.19 157.448C619.19 154.824 620.118 152.92 621.974 151.736C623.862 150.552 626.374 149.96 629.51 149.96H639.59V151.256L635.27 151.832C636.614 152.344 637.702 153.128 638.534 154.184C639.398 155.24 639.83 156.328 639.83 157.448C639.83 160.072 638.934 161.96 637.142 163.112C635.382 164.264 632.838 164.84 629.51 164.84C627.846 164.84 626.63 164.936 625.862 165.128C625.094 165.288 624.71 165.672 624.71 166.28C624.71 166.792 625.094 167.128 625.862 167.288C626.63 167.448 627.846 167.544 629.51 167.576C632.966 167.64 635.782 168.328 637.958 169.64C640.166 170.92 641.27 172.76 641.27 175.16C641.27 177.784 640.214 179.672 638.102 180.824C636.022 182.008 633.158 182.6 629.51 182.6ZM629.51 162.92C632.07 162.92 633.35 161.096 633.35 157.448C633.35 155.656 632.998 154.28 632.294 153.32C631.59 152.36 630.662 151.88 629.51 151.88C628.326 151.88 627.382 152.344 626.678 153.272C626.006 154.2 625.67 155.592 625.67 157.448C625.67 161.096 626.95 162.92 629.51 162.92ZM629.51 180.44C631.174 180.44 632.47 179.992 633.398 179.096C634.326 178.232 634.79 176.92 634.79 175.16C634.79 173.752 634.342 172.584 633.446 171.656C632.582 170.696 631.398 170.072 629.894 169.784L627.638 169.544C626.518 170.024 625.67 170.712 625.094 171.608C624.518 172.504 624.23 173.688 624.23 175.16C624.23 176.92 624.694 178.232 625.622 179.096C626.55 179.992 627.846 180.44 629.51 180.44ZM655.019 173.48C652.811 173.48 650.875 172.968 649.211 171.944C647.547 170.92 646.251 169.528 645.323 167.768C644.427 165.976 643.979 163.96 643.979 161.72C643.979 159.224 644.427 157.096 645.323 155.336C646.251 153.576 647.515 152.248 649.115 151.352C650.715 150.424 652.523 149.96 654.539 149.96C656.523 149.96 658.315 150.36 659.915 151.16C661.515 151.96 662.779 153.096 663.707 154.568C664.635 156.008 665.099 157.672 665.099 159.56L664.907 162.584H650.459C650.459 165.624 650.923 167.848 651.851 169.256C652.779 170.632 654.075 171.32 655.739 171.32C657.275 171.32 658.555 170.984 659.579 170.312C660.635 169.608 661.643 168.616 662.603 167.336L664.091 168.44C663.163 169.88 661.995 171.08 660.587 172.04C659.211 173 657.355 173.48 655.019 173.48ZM658.619 160.424C658.619 157.416 658.267 155.288 657.563 154.04C656.859 152.76 655.851 152.12 654.539 152.12C653.323 152.12 652.331 152.776 651.563 154.088C650.827 155.368 650.459 157.48 650.459 160.424H658.619ZM679.873 173.48C677.537 173.48 675.489 172.968 673.729 171.944C672.001 170.888 670.673 169.48 669.745 167.72C668.817 165.928 668.353 163.928 668.353 161.72C668.353 159.512 668.817 157.528 669.745 155.768C670.673 153.976 672.001 152.568 673.729 151.544C675.489 150.488 677.537 149.96 679.873 149.96C682.209 149.96 684.241 150.488 685.969 151.544C687.729 152.568 689.073 153.976 690.001 155.768C690.929 157.528 691.393 159.512 691.393 161.72C691.393 163.928 690.929 165.928 690.001 167.72C689.073 169.48 687.729 170.888 685.969 171.944C684.241 172.968 682.209 173.48 679.873 173.48ZM679.873 171.32C681.505 171.32 682.753 170.44 683.617 168.68C684.481 166.92 684.913 164.6 684.913 161.72C684.913 158.84 684.481 156.52 683.617 154.76C682.753 153 681.505 152.12 679.873 152.12C678.241 152.12 676.993 153 676.129 154.76C675.265 156.52 674.833 158.84 674.833 161.72C674.833 164.6 675.265 166.92 676.129 168.68C676.993 170.44 678.241 171.32 679.873 171.32ZM696.949 156.68C696.949 155.048 696.725 153.848 696.277 153.08C695.861 152.28 694.981 151.88 693.637 151.88H693.157V150.44H697.909C698.997 150.44 699.845 150.584 700.453 150.872C701.093 151.128 701.589 151.576 701.941 152.216C703.573 150.712 705.909 149.96 708.949 149.96C711.989 149.96 714.261 150.68 715.765 152.12C717.301 153.528 718.069 155.752 718.069 158.792V173H711.829V158.744C711.829 156.536 711.413 154.92 710.581 153.896C709.781 152.872 708.677 152.36 707.269 152.36C705.573 152.36 704.213 152.76 703.189 153.56V173H696.949V156.68Z" fill="url(#paint0_linear)"/>
</g>
<defs>
<filter id="filter0_d" x="0.183441" y="0.0799561" width="1067.22" height="191.52" filterUnits="userSpaceOnUse" color-interpolation-filters="sRGB">
<feFlood flood-opacity="0" result="BackgroundImageFix"/>
<feColorMatrix in="SourceAlpha" type="matrix" values="0 0 0 0 0 0 0 0 0 0 0 0 0 0 0 0 0 0 127 0"/>
<feOffset dy="9"/>
<feColorMatrix type="matrix" values="0 0 0 0 0 0 0 0 0 0 0 0 0 0 0 0 0 0 0.25 0"/>
<feBlend mode="normal" in2="BackgroundImageFix" result="effect1_dropShadow"/>
<feBlend mode="normal" in="SourceGraphic" in2="effect1_dropShadow" result="shape"/>
</filter>
<linearGradient id="paint0_linear" x1="535" y1="-30.4" x2="535" y2="199" gradientUnits="userSpaceOnUse">
<stop stop-color="#C09645"/>
<stop offset="0.5" stop-color="#FFC977"/>
<stop offset="1" stop-color="#C09645"/>
</linearGradient>
</defs>
</svg>
