<svg width="84" height="84" viewBox="0 0 84 84" fill="none" xmlns="http://www.w3.org/2000/svg"><g filter="url(#filter0_d)"><g filter="url(#filter1_i)"><path d="M71 5H13C8.58172 5 5 8.58172 5 13V71C5 75.4183 8.58172 79 13 79H71C75.4183 79 79 75.4183 79 71V13C79 8.58172 75.4183 5 71 5Z" fill="#0C0C0C"></path></g><path d="M71 6H13C9.13401 6 6 9.13401 6 13V71C6 74.866 9.13401 78 13 78H71C74.866 78 78 74.866 78 71V13C78 9.13401 74.866 6 71 6Z" stroke="url(#paint0_linear)" stroke-width="2"></path></g><defs><filter id="filter0_d" x="0" y="0" width="84" height="84" filterUnits="userSpaceOnUse" color-interpolation-filters="sRGB"><feFlood flood-opacity="0" result="BackgroundImageFix"></feFlood><feColorMatrix in="SourceAlpha" type="matrix" values="0 0 0 0 0 0 0 0 0 0 0 0 0 0 0 0 0 0 127 0"></feColorMatrix><feOffset></feOffset><feGaussianBlur stdDeviation="2.5"></feGaussianBlur><feColorMatrix type="matrix" values="0 0 0 0 1 0 0 0 0 0.828583 0 0 0 0 0.495833 0 0 0 1 0"></feColorMatrix><feBlend mode="normal" in2="BackgroundImageFix" result="effect1_dropShadow"></feBlend><feBlend mode="normal" in="SourceGraphic" in2="effect1_dropShadow" result="shape"></feBlend></filter><filter id="filter1_i" x="5" y="5" width="74" height="74" filterUnits="userSpaceOnUse" color-interpolation-filters="sRGB"><feFlood flood-opacity="0" result="BackgroundImageFix"></feFlood><feBlend mode="normal" in="SourceGraphic" in2="BackgroundImageFix" result="shape"></feBlend><feColorMatrix in="SourceAlpha" type="matrix" values="0 0 0 0 0 0 0 0 0 0 0 0 0 0 0 0 0 0 127 0" result="hardAlpha"></feColorMatrix><feOffset></feOffset><feGaussianBlur stdDeviation="7.5"></feGaussianBlur><feComposite in2="hardAlpha" operator="arithmetic" k2="-1" k3="1"></feComposite><feColorMatrix type="matrix" values="0 0 0 0 0 0 0 0 0 0 0 0 0 0 0 0 0 0 1 0"></feColorMatrix><feBlend mode="normal" in2="shape" result="effect1_innerShadow"></feBlend></filter><linearGradient id="paint0_linear" x1="42" y1="5" x2="42" y2="79" gradientUnits="userSpaceOnUse"><stop stop-color="#31323C"></stop><stop offset="0.520833" stop-color="#4B4D5A"></stop><stop offset="1" stop-color="#31323C"></stop></linearGradient></defs></svg>