<svg width="20" height="20" viewBox="0 0 20 20" fill="none" xmlns="http://www.w3.org/2000/svg">
<path d="M10 20C4.477 20 0 15.523 0 10C0 4.477 4.477 0 10 0C15.523 0 20 4.477 20 10C20 15.523 15.523 20 10 20ZM5 15H7C7 14.2044 7.31607 13.4413 7.87868 12.8787C8.44129 12.3161 9.20435 12 10 12C10.7956 12 11.5587 12.3161 12.1213 12.8787C12.6839 13.4413 13 14.2044 13 15H15C15 13.6739 14.4732 12.4021 13.5355 11.4645C12.5979 10.5268 11.3261 10 10 10C8.67392 10 7.40215 10.5268 6.46447 11.4645C5.52678 12.4021 5 13.6739 5 15ZM6 9C6.39782 9 6.77936 8.84196 7.06066 8.56066C7.34196 8.27936 7.5 7.89782 7.5 7.5C7.5 7.10218 7.34196 6.72064 7.06066 6.43934C6.77936 6.15804 6.39782 6 6 6C5.60218 6 5.22064 6.15804 4.93934 6.43934C4.65804 6.72064 4.5 7.10218 4.5 7.5C4.5 7.89782 4.65804 8.27936 4.93934 8.56066C5.22064 8.84196 5.60218 9 6 9ZM14 9C14.3978 9 14.7794 8.84196 15.0607 8.56066C15.342 8.27936 15.5 7.89782 15.5 7.5C15.5 7.10218 15.342 6.72064 15.0607 6.43934C14.7794 6.15804 14.3978 6 14 6C13.6022 6 13.2206 6.15804 12.9393 6.43934C12.658 6.72064 12.5 7.10218 12.5 7.5C12.5 7.89782 12.658 8.27936 12.9393 8.56066C13.2206 8.84196 13.6022 9 14 9Z" fill="#832F2F"/>
</svg>
