<svg width="20" height="20" viewBox="0 0 20 20" fill="none" xmlns="http://www.w3.org/2000/svg">
<path d="M10 20C4.477 20 0 15.523 0 10C0 4.477 4.477 0 10 0C15.523 0 20 4.477 20 10C20 15.523 15.523 20 10 20ZM5 11C5 12.3261 5.52678 13.5979 6.46447 14.5355C7.40215 15.4732 8.67392 16 10 16C11.3261 16 12.5979 15.4732 13.5355 14.5355C14.4732 13.5979 15 12.3261 15 11H13C13 11.7956 12.6839 12.5587 12.1213 13.1213C11.5587 13.6839 10.7956 14 10 14C9.20435 14 8.44129 13.6839 7.87868 13.1213C7.31607 12.5587 7 11.7956 7 11H5ZM6 9C6.39782 9 6.77936 8.84196 7.06066 8.56066C7.34196 8.27936 7.5 7.89782 7.5 7.5C7.5 7.10218 7.34196 6.72064 7.06066 6.43934C6.77936 6.15804 6.39782 6 6 6C5.60218 6 5.22064 6.15804 4.93934 6.43934C4.65804 6.72064 4.5 7.10218 4.5 7.5C4.5 7.89782 4.65804 8.27936 4.93934 8.56066C5.22064 8.84196 5.60218 9 6 9ZM14 9C14.3978 9 14.7794 8.84196 15.0607 8.56066C15.342 8.27936 15.5 7.89782 15.5 7.5C15.5 7.10218 15.342 6.72064 15.0607 6.43934C14.7794 6.15804 14.3978 6 14 6C13.6022 6 13.2206 6.15804 12.9393 6.43934C12.658 6.72064 12.5 7.10218 12.5 7.5C12.5 7.89782 12.658 8.27936 12.9393 8.56066C13.2206 8.84196 13.6022 9 14 9Z" fill="#428F3B"/>
</svg>
