<svg width="291" height="574" viewBox="0 0 291 574" fill="none" xmlns="http://www.w3.org/2000/svg">
<path opacity="0.31" d="M126.096 1.80662C131.19 -0.29913 136.895 -0.386479 142.251 0.636761C147.017 1.71615 151.509 3.78135 155.741 6.18659C157.697 7.37517 159.781 8.54815 161.131 10.4574C162.719 12.6442 163.624 15.2242 164.488 17.7604C164.956 19.1019 165.09 20.5244 165.211 21.9314C165.467 26.0899 165.72 30.2514 165.81 34.4193C165.907 35.6016 165.005 36.4938 164.631 37.542C164.017 39.1268 163.365 40.6991 162.853 42.3182C162.607 43.1106 162.691 43.9498 163.087 44.6766C163.196 46.3581 163.05 48.0614 162.7 49.7117C162.158 52.2043 160.317 54.1572 159.675 56.6124C158.792 60.0752 158.193 63.6191 156.995 66.9945C156.396 68.545 155.785 70.2701 154.363 71.259C152.557 72.3571 150.357 71.7831 148.405 71.5024C146.833 71.2622 144.961 70.9346 143.642 72.067C142.509 73.1651 142.029 74.7374 141.599 76.213C140.909 78.8522 140.535 81.5819 140.535 84.3147C140.519 85.2631 140.887 86.1834 141.461 86.9258C142.669 88.5169 144.238 89.7678 145.76 91.0344C148.071 92.9093 150.448 94.7187 152.993 96.2723C154.378 97.1177 155.866 97.8539 157.482 98.1253C160.458 98.7368 163.493 98.144 166.493 98.2969C168.82 98.5496 171.213 98.6775 173.406 99.5728C181.681 102.898 188.312 109.652 192.18 117.617C194.389 121.806 195.231 126.505 196.26 131.075C197.262 136.25 197.343 141.551 198.313 146.729C198.74 149.225 200.212 151.356 201.8 153.262C203.768 155.608 204.985 158.443 206.329 161.164C208.297 165.207 210.197 169.287 212.343 173.243C213.064 174.559 213.825 175.879 214.892 176.955C216.517 178.681 218.65 179.807 220.36 181.441C224.349 185.332 227.855 189.712 230.84 194.413C234.112 199.541 237.179 204.804 239.933 210.232C242.463 215.218 244.25 220.527 246.259 225.737C247.584 229.219 249.674 232.323 251.343 235.639C256.795 247.097 261.942 258.702 267.401 270.158C268.118 271.845 269.928 272.815 270.436 274.622C270.966 276.497 270.657 278.496 271.119 280.39C272.086 284.327 273.427 288.161 274.422 292.092C274.622 292.775 273.973 293.262 273.711 293.823C272.114 296.912 270.436 300.016 268.118 302.627C267.367 303.538 266.119 303.428 265.086 303.681C263.477 304.53 262.778 306.508 261.1 307.25C259.874 307.241 258.842 306.086 258.62 304.935C258.985 303.547 260.018 302.449 260.788 301.267C262.179 299.192 264.041 297.336 264.7 294.856C265.077 293.315 265.442 291.749 265.464 290.154C263.436 292.135 261.764 294.453 259.724 296.422C258.424 297.691 256.58 298.06 254.874 298.446C253.57 298.712 252.382 299.404 251.053 299.548C250.373 299.613 249.927 298.936 249.852 298.34C249.737 297.404 249.852 296.344 250.47 295.592C251.867 294.428 253.698 293.914 255.055 292.681C256.87 290.928 257.956 288.395 257.791 285.859C257.628 283.859 257.298 281.862 256.68 279.956C256.608 279.504 256.172 279.261 255.754 279.336C253.801 279.432 251.923 278.356 249.974 278.843C249.219 278.971 248.929 279.747 248.626 280.349C246.776 284.499 245.691 288.941 243.919 293.121C243.592 294.216 242.3 294.369 241.337 294.235C240.37 294.116 239.097 293.842 238.882 292.716C238.367 290.569 237.597 288.376 237.983 286.143C238.685 282.483 239.811 278.918 240.457 275.249C240.993 272.628 239.746 270.005 240.37 267.394C241.043 264.495 242.232 261.753 243.114 258.918C243.458 257.938 243.713 256.849 243.264 255.857C242.138 253.23 240.067 251.184 238.32 248.972C231.221 240.309 223.407 232.279 215.908 223.971C211.607 219.217 207.243 214.513 203.204 209.531C200.914 206.813 199.982 203.307 199.108 199.944C198.154 196.044 195.948 192.635 193.84 189.281C191.909 186.105 189.897 182.979 187.988 179.797C186.142 177.604 183.677 176.035 181.631 174.042C179.123 171.711 176.955 168.985 175.321 165.974C174.288 164.134 174.029 162.009 173.371 160.034C173.268 164.998 172.448 169.899 171.955 174.831C171.45 179.704 171.013 184.589 170.845 189.49C170.492 199.698 171.749 209.855 172.448 220.019C172.816 225.219 172.514 230.432 172.417 235.636C172.27 239.392 172.716 243.132 173.281 246.838C173.824 250.251 173.73 253.717 173.93 257.158C174.139 261.791 174.694 266.464 176.269 270.85C177.932 275.48 180.393 279.757 182.642 284.115C185.508 289.509 187.813 295.171 190.331 300.73C193.384 307.584 195.917 314.656 198.282 321.775C200.278 327.827 202.078 333.948 203.5 340.165C205.147 347.328 206.186 354.619 206.922 361.928C207.218 364.545 207.38 367.181 207.215 369.811C207.015 372.921 207.131 376.088 207.992 379.101C209.018 382.964 211.242 386.336 212.736 390.011C214.929 395.277 215.893 400.951 218.033 406.236C220.469 412.304 223.392 418.165 225.996 424.165C228.027 429.103 230.195 434.041 231.177 439.323C231.801 442.642 231.985 446.033 232.699 449.34C235.681 464.564 238.676 479.794 242.194 494.905C243.236 499.463 244.643 503.927 245.875 508.435C247.372 513.87 249.225 519.242 251.973 524.183C254.415 528.838 257.731 532.952 261.078 536.977C266.163 542.979 271.465 548.806 277.086 554.316C277.997 555.308 279.416 555.295 280.617 555.679C281.665 556.013 282.058 557.242 283.081 557.629C284.257 558.165 285.524 558.649 286.391 559.663C287.71 561.194 288.883 562.86 289.912 564.601C290.461 565.674 291.014 566.941 290.614 568.158C290.125 569.231 288.93 569.671 287.922 570.114C286.662 570.7 285.096 570.273 283.97 571.193C282.529 572.307 280.558 572.528 278.811 572.269C276.93 571.455 274.893 571.056 272.863 570.878C269.759 570.822 266.228 571.053 263.705 568.903C260.117 565.833 257.382 561.937 254.082 558.59C251.889 556.602 249.612 554.693 247.204 552.977C241.421 551.857 235.488 551.118 229.948 549C228.451 548.367 226.76 547.674 225.99 546.139C225.073 544.383 225.048 542.327 225.216 540.402C225.488 537.513 226.311 534.724 226.932 531.904C227.484 529.278 229.811 527.281 229.767 524.495C229.608 522.63 228.959 520.851 228.401 519.079C226.283 512.89 223.728 506.86 221.024 500.908C219.287 497.042 217.309 493.286 215.091 489.674C213.014 486.248 210.771 482.926 208.744 479.469C207.056 476.612 205.649 473.601 204.171 470.635C201.588 465.431 199.423 460.009 197.904 454.397C195.665 445.172 194.688 435.695 192.542 426.448C191.921 423.575 190.68 420.864 188.989 418.468C187.352 416.138 185.468 413.976 184.083 411.477C181.026 406.055 179.825 399.866 177.305 394.213C174.965 388.978 172.314 383.89 169.572 378.858C166.359 373.009 162.956 367.209 158.599 362.127C155.545 358.574 152.694 354.856 149.952 351.059C145.869 345.537 141.814 339.987 138.202 334.144C133.794 326.935 130.123 319.298 126.779 311.549C125.712 309.243 125.581 306.645 124.636 304.308C124.243 303.366 123.083 303.534 122.294 303.762C120.129 304.377 117.877 303.856 115.703 303.584C115.678 306.423 115.556 309.287 116.018 312.104C116.585 315.807 117.194 319.526 117.187 323.285C117.219 329.955 116.804 336.615 116.495 343.272C115.796 354.834 114.929 366.386 113.894 377.922C113.557 382.218 112.518 386.42 112.112 390.706C111.62 395.055 112.122 399.438 111.847 403.803C111.492 409.683 109.77 415.358 108.285 421.029C107.955 422.43 107.356 423.84 107.618 425.309C108.245 429.14 108.179 433.074 109.124 436.858C110.65 443.325 112.169 449.842 112.515 456.5C112.693 459.744 112.278 462.979 111.897 466.195C110.334 478.427 107.88 490.522 106.189 502.736C105.64 506.23 105.827 509.777 106.089 513.289C106.376 516.534 106.754 519.772 107.352 522.976C107.602 524.582 108.8 525.852 108.99 527.484C109.514 530.737 109.988 534.026 109.985 537.329C110.051 539.666 107.668 541.191 107.783 543.528C107.858 545.649 108.485 547.702 108.85 549.786C109.47 552.631 108.382 555.876 106.017 557.623C104.576 558.73 102.686 558.508 100.999 558.817C100.553 559.354 100.138 559.962 100.082 560.686C99.7603 562.901 99.5825 565.331 98.1133 567.141C96.7003 568.775 94.9441 570.073 93.1599 571.274C91.3851 572.41 89.4824 573.558 87.3238 573.676C85.4429 573.798 83.5059 573.654 81.7092 573.068C80.8826 572.728 81.0884 571.683 80.8826 570.99C80.1496 571.736 79.5912 572.743 78.5868 573.171C77.4234 573.502 76.4439 572.628 75.4551 572.191C74.3883 571.642 73.1562 572.197 72.0458 571.892C71.503 571.611 71.1942 571.053 70.7419 570.672C70.1243 570.51 69.3663 570.582 68.939 570.017C68.4025 569.377 67.8473 568.75 67.0456 568.457C66.2502 567.116 65.6919 565.306 66.3126 563.803C67.6165 561.712 69.541 560.115 71.1755 558.303C75.1338 553.848 79.5101 549.786 83.4092 545.278C84.6506 543.79 85.9826 542.321 86.8092 540.552C88.0163 537.551 87.7262 534.244 87.6358 531.087C87.5765 529.48 88.1754 527.958 88.2846 526.373C88.5965 519.6 86.7998 513.012 85.4648 506.436C82.1864 490.775 78.7927 475.13 75.9604 459.379C75.3553 455.838 74.7096 452.288 74.5942 448.691C74.2168 441.285 75.7328 433.97 75.9324 426.585C76.2256 414.718 76.6062 402.851 76.4596 390.981C76.3785 386.308 76.3441 381.566 75.0091 377.046C73.6148 371.508 70.6827 366.417 69.9746 360.702C69.4943 357.308 69.4225 353.864 68.7675 350.494C67.1736 341.959 65.4455 333.449 64.126 324.867C63.4242 320.303 62.8191 315.714 62.7006 311.09C62.398 303.803 63.2371 296.543 64.073 289.318C65.2116 278.241 66.8304 267.219 68.5647 256.219C69.1324 252.772 69.6783 249.318 70.4113 245.906C71.0633 242.855 72.261 239.966 73.4464 237.093C75.4146 232.351 76.2724 227.263 77.255 222.252C77.8383 219.236 78.3124 216.197 78.8801 213.181C79.5102 210.997 80.2557 208.844 80.7485 206.623C81.5252 203.463 81.6157 200.184 81.5377 196.946C81.4379 194.634 81.3349 192.301 80.8015 190.042C80.1683 187.387 78.2999 185.247 77.6105 182.614C75.1183 173.489 73.0065 164.265 70.4113 155.168C70.0526 154.026 69.7812 152.844 69.226 151.777C68.7737 154.528 68.8767 157.358 68.1873 160.075C67.7756 161.844 66.7587 163.376 65.8791 164.935C62.2576 171.041 58.3648 176.983 54.6872 183.054C53.399 185.213 52.0639 187.353 50.9878 189.627C49.1568 193.848 48.2366 198.384 47.3788 202.883C46.8267 205.491 47.382 208.389 45.8566 210.738C39.8958 220.846 33.3329 230.594 27.6028 240.842C24.8953 245.587 23.1735 250.813 21.5453 256.004C20.8309 258.54 20.0106 261.089 19.8203 263.731C19.6612 264.377 20.2383 264.87 20.8341 264.929C22.272 265.107 23.7662 264.873 25.1605 265.363C29.465 266.776 33.4202 269.399 36.1558 273.043C38.2239 275.813 40.1671 278.687 41.8297 281.719C42.7312 283.26 42.7343 285.082 42.7561 286.81C42.7436 288.17 43.3956 289.39 43.8135 290.647C44.1099 291.346 43.5889 292.089 42.9745 292.404C42.3568 292.563 41.786 292.192 41.2308 291.986C40.189 291.49 38.935 291.281 38.1552 290.357C37.2288 289.128 36.7734 287.631 36.0154 286.308C35.3697 285.3 34.2593 284.739 33.4888 283.846C32.8962 283.076 32.0353 282.599 31.4582 281.816C30.0296 281.597 28.5386 281.482 27.1225 281.837C26.5984 281.981 26.6889 282.63 26.8012 283.032C27.2722 284.477 28.0957 285.803 29.1469 286.897C32.4688 290.385 36.1652 293.511 40.164 296.197C41.0031 296.84 42.1042 297.333 42.5315 298.365C42.6095 299.516 42.4068 301.148 41.0842 301.51C37.3442 301.919 33.8507 300.284 30.485 298.889C31.4083 299.975 32.603 300.817 33.8257 301.544C35.2762 302.383 37.4284 302.299 38.2083 304.043C38.5451 304.976 38.9007 306.355 37.9837 307.066C35.9905 307.325 33.9879 306.726 31.9885 306.969C31.9011 307.805 32.3066 308.663 32.0197 309.481C31.5799 309.998 30.8437 310.03 30.223 310.142C27.6278 310.379 25.0263 310.522 22.428 310.697C21.8665 310.738 21.4704 311.44 20.8684 311.209C17.3499 310.382 13.8532 309.318 10.656 307.612C9.34901 306.897 8.42571 305.64 8.09195 304.193C5.58408 296.032 3.60336 287.718 1.6819 279.401C0.253289 273.477 -0.342478 267.228 1.00815 261.232C2.46484 254.984 4.75124 248.9 5.36573 242.477C6.14554 235.258 6.70077 227.993 8.27287 220.889C9.32093 215.973 10.8806 211.159 13.0671 206.629C15.94 200.574 19.5676 194.928 23.2234 189.325C24.6957 187.041 26.2054 184.779 27.5248 182.402C30.6846 176.559 31.898 169.936 34.5899 163.897C36.2369 160.134 38.8071 156.824 40.111 152.906C41.131 150.136 41.3306 147.16 41.4835 144.237C41.7455 139.744 41.7424 135.224 42.4099 130.766C42.8247 127.852 43.7855 125.054 44.7493 122.287C48.2647 112.388 55.6698 104.184 64.5253 98.7024C67.5728 96.7558 71.2691 96.3752 74.7939 96.163C76.3317 96.1318 78.1034 96.9897 79.4727 95.9197C81.6968 94.0916 83.7087 92.0233 85.783 90.0267C91.2447 84.6703 96.5787 79.186 101.962 73.7516C103.441 72.2136 105.431 71.1935 106.607 69.3685C107.842 67.4499 108.504 65.2256 108.937 63.0013C109.293 60.9673 109.558 58.8834 109.274 56.8213C108.791 52.7877 107.771 48.8288 107.477 44.7671C106.994 37.6699 105.316 30.5821 106.214 23.4444C106.738 18.7774 109.18 14.5347 112.281 11.0937C116.074 6.96962 120.937 3.92797 126.096 1.80662Z" fill="black"/>
</svg>
